<svg width="231" height="83" viewBox="0 0 231 83" fill="none" xmlns="http://www.w3.org/2000/svg">
<path d="M0.024 1.088H15C18.008 1.088 20.264 1.808 21.768 3.248C23.272 4.656 24.024 6.688 24.024 9.344C24.024 10.976 23.688 12.368 23.016 13.52C22.376 14.64 21.48 15.504 20.328 16.112C21.896 16.56 23.096 17.344 23.928 18.464C24.792 19.552 25.224 21.088 25.224 23.072C25.224 26.048 24.408 28.288 22.776 29.792C21.176 31.264 18.808 32 15.672 32H0.024V1.088ZM14.28 14.288C17.544 14.288 19.176 12.784 19.176 9.776C19.176 8.112 18.776 6.912 17.976 6.176C17.176 5.408 15.752 5.024 13.704 5.024H5.256V14.288H14.28ZM14.568 28.16C16.456 28.16 17.816 27.76 18.648 26.96C19.512 26.16 19.944 24.8 19.944 22.88C19.944 21.248 19.496 20.048 18.6 19.28C17.736 18.512 16.216 18.128 14.04 18.128H5.256V28.16H14.568ZM42.3806 1.088H48.2366L59.9486 32H54.5726L51.5006 24.032H39.0686L35.9966 32H30.5726L42.3806 1.088ZM50.6366 20L45.2606 5.84L39.8846 20H50.6366ZM69.414 1.088H74.022L90.15 23.84V1.088H95.334V32H90.726L74.646 9.296V32H69.414V1.088ZM119.19 32.48C114.198 32.48 110.39 31.136 107.766 28.448C105.142 25.728 103.83 21.968 103.83 17.168C103.83 11.952 105.126 7.888 107.718 4.976C110.31 2.064 114.182 0.607998 119.334 0.607998C122.758 0.607998 125.814 1.072 128.502 2V6.512C125.846 5.552 122.934 5.072 119.766 5.072C115.958 5.072 113.222 6.08 111.558 8.096C109.926 10.08 109.11 13.104 109.11 17.168C109.11 24.432 112.518 28.064 119.334 28.064C122.086 28.064 124.31 27.744 126.006 27.104V18.464H118.278V15.056H130.47V29.936C129.318 30.672 127.798 31.28 125.91 31.76C124.054 32.24 121.814 32.48 119.19 32.48ZM138.9 1.088H144.132V15.296L157.284 1.088H163.332L151.956 13.568L163.812 32H158.244L148.692 16.88L144.132 21.776V32H138.9V1.088ZM182.799 32.48C177.871 32.48 174.191 31.2 171.759 28.64C169.359 26.048 168.159 22.048 168.159 16.64C168.159 11.072 169.359 7.008 171.759 4.448C174.159 1.888 177.839 0.607998 182.799 0.607998C187.759 0.607998 191.439 1.888 193.839 4.448C196.239 7.008 197.439 11.072 197.439 16.64C197.439 22.048 196.223 26.048 193.791 28.64C191.391 31.2 187.727 32.48 182.799 32.48ZM182.799 28.064C186.063 28.064 188.447 27.168 189.951 25.376C191.455 23.584 192.207 20.672 192.207 16.64C192.207 12.448 191.455 9.472 189.951 7.712C188.479 5.952 186.095 5.072 182.799 5.072C179.535 5.072 177.151 5.952 175.647 7.712C174.175 9.472 173.439 12.448 173.439 16.64C173.439 20.64 174.191 23.552 175.695 25.376C177.199 27.168 179.567 28.064 182.799 28.064ZM205.948 1.088H211.18V15.296L224.332 1.088H230.38L219.004 13.568L230.86 32H225.292L215.74 16.88L211.18 21.776V32H205.948V1.088ZM0.024 51.088H13.8C17.224 51.088 19.8 52.032 21.528 53.92C23.288 55.808 24.168 58.304 24.168 61.408C24.168 64.48 23.208 66.944 21.288 68.8C19.4 70.656 16.84 71.584 13.608 71.584H5.256V82H0.024V51.088ZM12.648 67.456C14.664 67.456 16.216 66.928 17.304 65.872C18.392 64.784 18.936 63.296 18.936 61.408C18.936 59.424 18.424 57.888 17.4 56.8C16.376 55.712 14.872 55.168 12.888 55.168H5.256V67.456H12.648ZM41.7578 82.48C36.8297 82.48 33.1497 81.2 30.7177 78.64C28.3177 76.048 27.1177 72.048 27.1177 66.64C27.1177 61.072 28.3177 57.008 30.7177 54.448C33.1177 51.888 36.7977 50.608 41.7578 50.608C46.7178 50.608 50.3977 51.888 52.7977 54.448C55.1978 57.008 56.3978 61.072 56.3978 66.64C56.3978 72.048 55.1818 76.048 52.7498 78.64C50.3498 81.2 46.6858 82.48 41.7578 82.48ZM41.7578 78.064C45.0217 78.064 47.4057 77.168 48.9097 75.376C50.4138 73.584 51.1658 70.672 51.1658 66.64C51.1658 62.448 50.4138 59.472 48.9097 57.712C47.4378 55.952 45.0538 55.072 41.7578 55.072C38.4937 55.072 36.1097 55.952 34.6057 57.712C33.1337 59.472 32.3977 62.448 32.3977 66.64C32.3977 70.64 33.1497 73.552 34.6537 75.376C36.1577 77.168 38.5257 78.064 41.7578 78.064ZM62.5065 51.088H67.7385V77.968H83.5785V82H62.5065V51.088ZM91.8757 70.528L80.7877 51.088H86.2117L94.4677 66.112L102.724 51.088H108.148L97.0597 70.528V82H91.8757V70.528ZM114.208 51.088H129.184C132.192 51.088 134.448 51.808 135.952 53.248C137.456 54.656 138.208 56.688 138.208 59.344C138.208 60.976 137.872 62.368 137.2 63.52C136.56 64.64 135.664 65.504 134.512 66.112C136.08 66.56 137.28 67.344 138.112 68.464C138.976 69.552 139.408 71.088 139.408 73.072C139.408 76.048 138.592 78.288 136.96 79.792C135.36 81.264 132.992 82 129.856 82H114.208V51.088ZM128.464 64.288C131.728 64.288 133.36 62.784 133.36 59.776C133.36 58.112 132.96 56.912 132.16 56.176C131.36 55.408 129.936 55.024 127.888 55.024H119.44V64.288H128.464ZM128.752 78.16C130.64 78.16 132 77.76 132.832 76.96C133.696 76.16 134.128 74.8 134.128 72.88C134.128 71.248 133.68 70.048 132.784 69.28C131.92 68.512 130.4 68.128 128.224 68.128H119.44V78.16H128.752ZM158.649 82.48C154.361 82.48 151.049 81.456 148.713 79.408C146.377 77.36 145.209 74.4 145.209 70.528V51.088H150.441V70.336C150.441 72.896 151.145 74.832 152.553 76.144C153.961 77.424 155.993 78.064 158.649 78.064C161.273 78.064 163.289 77.424 164.697 76.144C166.105 74.832 166.809 72.896 166.809 70.336V51.088H171.993V70.528C171.993 74.4 170.825 77.36 168.489 79.408C166.185 81.456 162.905 82.48 158.649 82.48ZM178.753 51.088H183.985V77.968H199.825V82H178.753V51.088ZM204.932 51.088H210.164V65.296L223.316 51.088H229.364L217.988 63.568L229.844 82H224.276L214.724 66.88L210.164 71.776V82H204.932V51.088Z" fill="#F2F2F2"/>
</svg>
