<svg width="96" height="96" viewBox="0 0 96 96" fill="none" xmlns="http://www.w3.org/2000/svg">
<g clip-path="url(#clip0)">
<path d="M64.3223 48.73L63.4336 48.3398C62.9893 48.1448 62.4582 48.2748 62.1548 48.6541L55.7932 56.663C55.1538 57.465 53.8533 57.0098 53.875 55.9802L53.8858 55.1458C53.8858 54.9182 53.9617 54.7014 54.1026 54.5172L60.7026 45.6196C62.6533 42.9103 63.7804 39.5615 63.6937 35.9526C63.477 27.6403 56.6494 20.726 48.3587 20.4226C39.2878 20.0866 31.8208 27.3369 31.8208 36.3428C31.8208 39.6265 32.8178 42.6827 34.5193 45.2187H34.4976L41.2927 54.528C41.4228 54.7123 41.4986 54.929 41.4986 55.1458L41.5095 55.9802C41.5203 57.0098 40.2306 57.465 39.5912 56.663L33.2297 48.6541C32.9262 48.2748 32.3952 48.1448 31.9508 48.3398L31.0622 48.73C30.4119 49.0118 30.2169 49.8354 30.6504 50.3881L38.6701 60.532C39.2119 61.2147 38.7568 62.2334 37.8789 62.2768C37.1311 62.3093 36.6435 63.0788 36.9361 63.7724L41.2169 73.9379C41.3903 74.3389 41.7804 74.599 42.2139 74.599H53.1814C53.6149 74.599 54.005 74.3389 54.1784 73.9379L58.4592 63.7724C58.7518 63.0788 58.2641 62.3093 57.5164 62.2768C56.6385 62.2334 56.1834 61.2147 56.7252 60.532L64.7558 50.3773C65.1676 49.8246 64.9617 49.0118 64.3223 48.73ZM47.7518 44.5684C43.2109 44.5684 39.5262 40.8837 39.5262 36.3428C39.5262 31.8019 43.2109 28.1172 47.7518 28.1172C52.2927 28.1172 55.9774 31.8019 55.9774 36.3428C55.9883 40.8837 52.2927 44.5684 47.7518 44.5684Z" stroke="#34576A" stroke-width="0.75" stroke-miterlimit="10"/>
<path d="M47.7518 51.7103C56.3647 51.7103 63.3469 44.7767 63.3469 36.2236C63.3469 27.6706 56.3647 20.7369 47.7518 20.7369C39.1389 20.7369 32.1567 27.6706 32.1567 36.2236C32.1567 44.7767 39.1389 51.7103 47.7518 51.7103Z" stroke="#34576A" stroke-width="0.5" stroke-miterlimit="10"/>
</g>
<defs>
<clipPath id="clip0">
<rect width="35.3734" height="55" fill="white" transform="translate(30 20)"/>
</clipPath>
</defs>
</svg>
