<svg fill="none" height="96" viewBox="0 0 96 96" width="96" xmlns="http://www.w3.org/2000/svg"><g stroke="#34576a" stroke-linecap="round" stroke-miterlimit="10" stroke-width=".5"><path d="m52.1641 26.66-.79-.44.01-.95.02-2.55c0-3.54-2.1-5.21-5.97-5.21-1.94 0-3.43.42-4.44 1.28-.25.22-.47.46-.67.73-.57.81-.87 1.88-.87 3.21l.02 2.86m5.95-6.56c.48 0 .93.11 1.34.31 1.22.6 2.03 2.01 2.15 3.5l-.01 1.3v.69s-2.2-1.37-3.39-1.89l-.73-.41-.91.52c-.02.01-.03.01-.05.02s-.05.02-.07.03l-1.81 1.05-.01-1.31c.03-.37.12-.73.23-1.08.48-1.52 1.69-2.72 3.26-2.73z"/><path d="m49.5345 45.4c-3.87 0-5.97 1.67-5.97 5.21v24.65c0 .17.09.33.24.42l1.49.92c.33.21.76-.03.76-.43v-25.44c.16-1.99 1.55-3.8 3.49-3.81 1.93-.01 3.33 1.82 3.49 3.81l-.05 26.03c0 .39.43.63.76.43l1.49-.92c.15-.09.23-.25.24-.42l.05-25.24c-.02-3.54-2.12-5.21-5.99-5.21z"/><path d="m19.5842 32.1 1.08 1.55c.07.1.18.17.3.2 1.92.45 2.3 1.73 2.45 3.66l-.05 26.1c0 .17.09.33.23.43l1.49.93c.33.21.76-.03.76-.42l.06-27.17c0-3.18-2.65-5.44-5.82-6.06-.43-.09-.76.41-.5.78z"/><path d="m72.5844 63.62-.6.33v.03l.65-.36c.06-.04.11-.09.17-.13l-.2.11c0 .01-.01.02-.02.02z" stroke-linejoin="round"/><path d="m60.1841 70.49 9.32-5.14v-.02z" stroke-linejoin="round"/><path d="m49.5879 76.0612.0002-.08z" stroke-linejoin="round"/><path d="m48.5142 75.74.1.06c.03.02.07.03.11.04l-.1-.06c-.04-.01-.07-.02-.11-.04z" stroke-linejoin="round"/><path d="m73.6743 39.86-.04 11.32z" stroke-linejoin="round"/><path d="m21.6641 59.51v.68l.69.4c-.35-.28-.59-.65-.69-1.08z" stroke-linejoin="round"/><path d="m48.7241 75.85.86.5v-.28c-.29-.01-.59-.09-.86-.22z" stroke-linejoin="round"/><path d="m22.5441 35.4199-.8.46v.7c.1-.47.38-.88.8-1.16z" stroke-linejoin="round"/><path d="m73.6744 39.86v-1.12l-.96-.54c.59.35.95.97.96 1.66z" stroke-linejoin="round"/><path d="m44.7242 22.9c.34-.01.69.08.99.25l24.99 13.93-25.95-14.5-.91.52c.28-.13.58-.21.88-.2z" stroke-linejoin="round"/><path d="m55.5342 73.07 4.65-2.58-4.65 2.56z" stroke-linejoin="round"/><path d="m50.5542 75.7999c-.3.17-.63.26-.96.26v.3l3.46-1.92v-.02z" stroke-linejoin="round"/><path d="m72.8145 63.4899.79-.44.04-11.88-.04 10.8c0 .61-.31 1.17-.79 1.52z" stroke-linejoin="round"/><path d="m21.6643 59.09.04-10.02.04-12.48c-.04.13-.06.27-.06.41l-.07 22.09c0 .14.02.28.06.42z" stroke-linejoin="round"/><path d="m43.8443 23.11c-.04.02-.08.03-.11.05l-18.83 10.88.01.01z" stroke-linejoin="round"/><path d="m22.6345 60.75c-.02-.01-.03-.03-.05-.04l-.23-.13c.07.06.14.12.22.17l.87.5v-.03z" stroke-linejoin="round"/><path d="m22.9842 35.1499-.35.2c-.04.02-.06.05-.1.08l.45-.26c.01-.01.01-.02 0-.02z" stroke-linejoin="round"/><path d="m25.9341 62.6699v.03l17.71 10.25v-.03z" stroke-linejoin="round"/><path d="m46.124 74.39 2.2 1.27c.06.04.13.05.2.08l-2.39-1.39v.04z" stroke-linejoin="round"/><path d="m23.4943 37.4099c-.07-.89-.2-1.64-.5-2.24l-.31.18c-.58.34-.95.97-.95 1.65l-.03 12.07-.03 10.03c0 .66.35 1.27.91 1.62l.87.5z" stroke-linejoin="round"/><path d="m69.4543 40.5499c0-1.33.47-2.49 1.23-3.44l-25.02-13.96c-.29-.17-.61-.25-.94-.25-.32.01-.65.09-.94.26l-18.86 10.9c.66.91 1.06 2 1.06 3.22l-.05 25.38 17.7 10.25v-22.4c0-3.54 2.1-5.21 5.97-5.21s5.97 1.67 5.97 5.21l-.05 22.5 13.97-7.7z" stroke-linejoin="round"/><path d="m71.9443 40.6699.05 23.27.62-.34c.58-.35.93-.96.94-1.64l.07-22.11c0-.69-.37-1.32-.96-1.66l-.06-.03c-.42.64-.58 1.48-.66 2.51z" stroke-linejoin="round"/><path d="m75.8344 35.48-1.08 1.55c-.07.1-.18.17-.3.2-1.92.45-2.3 1.73-2.45 3.66l.05 25.1c0 .17-.09.33-.23.43l-1.49.93c-.33.21-.76-.03-.76-.42l-.07-26.17c0-3.18 2.65-5.44 5.82-6.06.44-.09.76.41.51.78z"/><path d="m49.3643 52.75v22.14"/><path d="m56.9541 48.53 11.27-6.02"/><path d="m49.3442 52.6 2.26-1.21"/><path d="m42.2141 48.67-15.26-9.08"/><path d="m49.3542 52.63-2.26-1.21"/><path d="m25.8943 64.2 17.73 10.26v.79c0 .17.09.33.24.42l1.49.93c.33.21.76-.03.76-.43v-.28l3.4 1.95c.24.14.54.14.78 0l2.76-1.57v.5c0 .39.43.63.76.43l1.49-.93c.15-.09.23-.25.24-.42v-1l14.03-7.98c.06.34.44.53.74.34l1.5-.94c.15-.09.24-.25.23-.43v-.38l1.71-.97c.52-.3.52-1.05-.01-1.34l-.09-.05.03-11.54.04-11.69s0 0 0-.01v-1.12l-.96-.54s0 0-.01-.01l-.1-.05c.36-.54.91-.93 1.79-1.13.12-.03.23-.1.31-.2l1.08-1.56c.25-.37-.07-.87-.51-.78-1.84.36-3.5 1.28-4.58 2.6l-19.4-10.83.03-3.51c0-3.55-2.1-5.23-5.98-5.23s-5.99 1.67-5.99 5.23l.02 2.87-14.58 8.43c-1.06-1.45-2.81-2.45-4.75-2.83-.44-.09-.76.42-.51.78l1.08 1.56c.07.1.18.17.3.2 1.02.24 1.6.72 1.95 1.4l-.35.2c-.04.02-.06.05-.1.08l-.8.47v.7c-.03.13-.05.27-.05.41l-.07 22.14c0 .14.02.28.06.42v.68l.69.4c.07.06.14.12.22.17l.19.11-.19.11c-.52.3-.52 1.04 0 1.34l.77.47.07.06zm16-41.34c.16-1.99 1.56-3.81 3.49-3.82 1.94-.01 3.34 1.83 3.49 3.82l-.01 1.99s-3.48-2.17-4.06-2.1-.98.32-.98.32c-.04.02-.08.03-.11.05l-1.82 1.05z"/></g><path d="m45.4243 17.5c3.87 0 5.97 1.67 5.97 5.21l-.02 2.55-.01.95.79.44-.09-.01 18.67 10.44c1.08-1.33 2.74-2.24 4.58-2.6.03-.01.07-.01.1-.01.32 0 .53.31.46.61.03.13.03.27-.06.4l-1.08 1.55c-.07.1-.18.17-.3.2-.8.19-1.32.52-1.68.99l.95.53v1.12.01l-.04 11.69-.02 11.53.09.05c.53.29.53 1.04.01 1.34l-1.7.97v.53c0 .17-.09.33-.23.43l-1.49.93c-.08.05-.17.08-.26.08-.26 0-.5-.21-.5-.5v-.06l-14.02 7.97v1c0 .17-.09.33-.24.42l-1.49.93c-.08.05-.17.07-.25.07-.01 0-.02 0-.03 0-.02 0-.04 0-.05 0-.26 0-.5-.2-.5-.49v-.47l-2.69 1.53c-.12.07-.25.1-.39.1s-.27-.03-.39-.1l-3.4-1.95v.28c0 .29-.24.5-.5.5h-.01c-.02 0-.04 0-.06 0-.08 0-.17-.02-.24-.07l-1.49-.92c-.15-.09-.23-.25-.24-.42v-.83l-17.72-10.14v.27c0 .29-.24.5-.5.5-.09 0-.18-.02-.26-.08l-1.49-.94c-.15-.09-.23-.25-.23-.43v-.75l-.86-.49c-.52-.3-.52-1.04 0-1.34l.19-.11-.2-.1c-.08-.05-.15-.11-.22-.17l-.69-.4v-.68c-.03-.14-.06-.28-.06-.42l.08-22.14c0-.14.03-.28.06-.41v-.7l.8-.47c.03-.02.06-.05.1-.08l.31-.18c-.35-.64-.93-1.1-1.91-1.32-.12-.03-.23-.1-.3-.2l-1.09-1.54c-.08-.11-.09-.23-.07-.34-.03-.28.18-.55.48-.55.03 0 .06 0 .1.01 1.94.38 3.69 1.38 4.75 2.83l14.58-8.43-.02-2.88c0-2.67 1.19-4.28 3.44-4.91.74-.22 1.6-.33 2.58-.33zm-3.48 6.65 1.77-1.02.04-.02c.02-.01.04-.02.07-.03.02-.01.03-.01.05-.02l.91-.52.73.41c1.14.5 3.21 1.78 3.36 1.88l.01-1.95c-.16-1.99-1.55-3.82-3.49-3.82h-.01c-.23 0-.45.03-.66.08-.05.01-.1.03-.15.05-.13.04-.26.09-.38.14-.11.05-.22.1-.32.16-.03.02-.06.04-.1.06-.75.49-1.32 1.3-1.61 2.22-.11.35-.2.71-.23 1.08zm3.48-7.15c-1.02 0-1.94.11-2.72.34-2.49.7-3.8 2.57-3.8 5.39l.02 2.58-13.96 8.08c-1.13-1.32-2.84-2.29-4.78-2.67-.07-.01-.13-.02-.2-.02-.28 0-.53.11-.72.32-.18.2-.27.46-.26.72-.02.24.03.45.16.64l1.08 1.55c.14.2.35.34.6.4.59.14 1.01.36 1.31.69l-.75.43-.23.15v.29.65c-.03.14-.06.3-.06.47l-.07 22.13c0 .18.03.34.06.48v.62.29l.25.14.51.29c-.15.21-.23.46-.23.73 0 .46.24.87.64 1.1l.61.35v.46c0 .35.17.67.47.85l1.49.93c.16.1.34.15.53.15.36 0 .68-.19.85-.48l16.85 9.66v.54c0 .35.18.66.47.84l1.49.92c.15.09.32.14.51.14h.1c.27-.01.51-.12.69-.3.06-.06.11-.13.15-.2l2.78 1.59c.19.11.42.17.64.17s.44-.06.64-.17l2-1.14c.05.13.12.24.22.34.19.19.45.3.71.3h.07.02c.19 0 .36-.05.52-.15l1.49-.93c.29-.18.47-.5.47-.84v-.71l13.27-7.55c.18.21.45.34.75.34.19 0 .37-.05.53-.15l1.49-.93c.29-.18.47-.51.47-.85v-.24l1.45-.82c.41-.23.65-.65.64-1.11 0-.4-.18-.76-.49-1l.03-11.26.04-11.69v-.05-.01-1.07-.29l-.26-.14-.36-.2c.26-.18.57-.3.96-.39.25-.06.46-.2.6-.4l1.08-1.55c.1-.14.2-.38.15-.7.02-.26-.06-.53-.22-.73-.19-.23-.46-.36-.75-.36-.06 0-.13.01-.2.02-1.85.36-3.46 1.23-4.59 2.46l-16.29-9.11.09.01-2.03-1.12-.54-.3v-.66l.02-2.55c.01-2.6-1.11-5.71-6.46-5.71zm-2.99 6.28v-.45c.02-.25.09-.57.2-.93.27-.84.77-1.54 1.41-1.96l.08-.05c.09-.05.18-.1.27-.14.1-.04.2-.08.31-.11l.06-.02.07-.02c.19-.04.37-.06.54-.06 1.71 0 2.86 1.71 2.99 3.36l-.01 1.03c-.75-.45-1.91-1.11-2.67-1.45l-.69-.39-.25-.14-.22.15-.87.5c-.01 0-.01 0-.02.01-.05.02-.09.03-.13.06z" fill="#34576a"/></svg>