<svg width="96" height="96" viewBox="0 0 96 96" fill="none" xmlns="http://www.w3.org/2000/svg">
<path d="M47.6871 48.11L47.6271 77.48L27.7871 66.03L27.8471 36.65L47.6871 48.11Z" stroke="#34576A" stroke-width="0.5" stroke-miterlimit="10" stroke-linecap="round" stroke-linejoin="round"/>
<path d="M47.5572 25.2001L67.3972 36.6501L47.6872 48.1101L27.8472 36.6501" stroke="#34576A" stroke-width="0.5" stroke-miterlimit="10" stroke-linecap="round" stroke-linejoin="round"/>
<path d="M67.397 36.65L67.337 66.04L47.627 77.5L47.687 48.11L67.397 36.65Z" stroke="#34576A" stroke-width="0.5" stroke-miterlimit="10" stroke-linecap="round" stroke-linejoin="round"/>
<path d="M68.547 30.76C68.827 29.77 68.657 28.85 68.037 28.49C68.027 28.48 68.007 28.48 67.997 28.47L64.6671 26.57C63.8471 26.1 62.577 26.78 61.827 28.09C61.247 29.09 61.147 30.16 61.487 30.82L63.387 34.36L51.4171 27.45L51.537 27.05L53.1671 21.82C53.4471 20.83 53.277 19.91 52.657 19.55C52.647 19.54 52.6271 19.54 52.6171 19.53L49.287 17.63C48.467 17.16 47.1971 17.84 46.4471 19.15C45.8671 20.15 45.767 21.22 46.107 21.88L48.047 25.48L47.5271 25.18L46.747 25.63C46.717 25.65 46.677 25.65 46.647 25.67L33.787 33.14L33.8071 33.07C34.0871 32.08 33.917 31.16 33.297 30.8C33.287 30.79 33.267 30.79 33.257 30.78L29.927 28.88C29.107 28.41 27.8371 29.09 27.0871 30.4C26.5071 31.4 26.407 32.47 26.747 33.13L28.437 36.27L27.817 36.63V37.23C27.787 37.35 27.767 37.47 27.767 37.59L27.707 65.06C27.707 65.18 27.727 65.3 27.757 65.42V66L28.327 66.33C28.397 66.38 28.4571 66.44 28.5271 66.49L46.507 76.87C46.557 76.9 46.617 76.91 46.677 76.94L46.767 76.99C46.787 77 46.8171 77.01 46.8371 77.02L47.597 77.46V77.22V77.48L53.1971 74.22L66.487 66.51C66.507 66.5 66.527 66.48 66.547 66.47L67.3071 66.03V65.09L67.3671 37.6V36.63L66.8371 36.32L66.9471 35.96L68.547 30.76Z" stroke="#34576A" stroke-width="0.5" stroke-miterlimit="10" stroke-linecap="round" stroke-linejoin="round"/>
<path d="M68.017 28.49L64.657 26.58C63.837 26.11 62.567 26.79 61.817 28.1C61.237 29.1 61.137 30.17 61.477 30.83L63.437 34.47L66.797 36.38L68.537 30.76C68.807 29.76 68.637 28.85 68.017 28.49Z" stroke="#34576A" stroke-width="0.5" stroke-miterlimit="10" stroke-linecap="round" stroke-linejoin="round"/>
<path d="M68.5475 30.76C68.8275 29.77 68.6575 28.85 68.0375 28.49C67.2175 28.02 65.9475 28.7 65.1975 30.01C64.6175 31.01 64.5175 31.82 64.8675 32.48L66.9275 35.99L68.5475 30.76Z" stroke="#34576A" stroke-width="0.5" stroke-miterlimit="10" stroke-linecap="round" stroke-linejoin="round"/>
<path d="M52.6274 19.5601L49.2674 17.6501C48.4474 17.1801 47.1774 17.8601 46.4274 19.1701C45.8474 20.1701 45.7474 21.2401 46.0874 21.9001L48.0474 25.5401L51.4074 27.4501L53.1474 21.8301C53.4174 20.8401 53.2474 19.9201 52.6274 19.5601Z" stroke="#34576A" stroke-width="0.5" stroke-miterlimit="10" stroke-linecap="round" stroke-linejoin="round"/>
<path d="M53.1471 21.8301C53.4271 20.8401 53.2571 19.9201 52.6371 19.5601C51.8171 19.0901 50.5471 19.7701 49.7971 21.0801C49.2171 22.0801 49.1171 22.8901 49.4671 23.5501L51.5271 27.0601L53.1471 21.8301Z" stroke="#34576A" stroke-width="0.5" stroke-miterlimit="10" stroke-linecap="round" stroke-linejoin="round"/>
<path d="M48.5971 39.75L45.2371 37.84C44.4171 37.37 43.1471 38.05 42.3971 39.36C41.8171 40.36 41.7171 41.43 42.0571 42.09L44.0171 45.73L47.3771 47.64L49.1171 42.02C49.3971 41.02 49.2171 40.1 48.5971 39.75Z" stroke="#34576A" stroke-width="0.5" stroke-miterlimit="10" stroke-linecap="round" stroke-linejoin="round"/>
<path d="M49.1271 42.02C49.4071 41.03 49.2371 40.11 48.6171 39.75C47.7971 39.28 46.5271 39.96 45.7771 41.27C45.1971 42.27 45.0971 43.08 45.4471 43.74L47.5071 47.25L49.1271 42.02Z" stroke="#34576A" stroke-width="0.5" stroke-miterlimit="10" stroke-linecap="round" stroke-linejoin="round"/>
<path d="M33.2573 30.8201L29.8973 28.9101C29.0773 28.4401 27.8073 29.1201 27.0573 30.4301C26.4773 31.4301 26.3773 32.5001 26.7173 33.1601L28.6773 36.8001L32.0373 38.7101L33.7773 33.0901C34.0573 32.0901 33.8773 31.1701 33.2573 30.8201Z" stroke="#34576A" stroke-width="0.5" stroke-miterlimit="10" stroke-linecap="round" stroke-linejoin="round"/>
<path d="M33.7771 33.08C34.0571 32.08 33.8771 31.17 33.2471 30.81C32.4271 30.34 31.1571 31.03 30.4171 32.35C29.8471 33.35 29.7571 34.16 30.0971 34.82L32.1771 38.32L33.7771 33.08Z" stroke="#34576A" stroke-width="0.5" stroke-miterlimit="10" stroke-linecap="round" stroke-linejoin="round"/>
<path d="M48.6772 17.5C48.8872 17.5 49.0772 17.55 49.2572 17.65L52.5872 19.55C52.5872 19.55 52.5872 19.55 52.5972 19.55C52.6072 19.56 52.6272 19.56 52.6372 19.56C53.2572 19.92 53.4272 20.84 53.1472 21.83L51.5172 27.06L51.4072 27.42L63.3372 34.31L61.4672 30.83C61.1272 30.17 61.2372 29.1 61.8072 28.1C62.3772 27.12 63.2372 26.49 63.9672 26.44C63.9972 26.44 64.0372 26.44 64.0672 26.44C64.2772 26.44 64.4672 26.49 64.6472 26.59L67.9772 28.49C67.9872 28.5 68.0072 28.5 68.0172 28.51C68.6372 28.87 68.8072 29.79 68.5272 30.78L66.8972 36.01L66.7972 36.34L67.3872 36.68L67.3272 66.07L47.6172 77.52V77.48V77.5L47.5972 77.49L47.5472 77.52V77.46V77.5L46.7872 77.06C46.7672 77.05 46.7372 77.04 46.7172 77.03L46.6272 76.98C46.5672 76.95 46.5172 76.94 46.4572 76.91L28.4772 66.53C28.3972 66.49 28.3372 66.43 28.2772 66.37L27.6972 66.04V65.46C27.6672 65.34 27.6472 65.22 27.6472 65.1L27.7072 37.63C27.7072 37.51 27.7272 37.39 27.7572 37.27V36.67L28.3772 36.31L26.7072 33.15C26.3672 32.49 26.4772 31.42 27.0472 30.42C27.6372 29.39 28.5572 28.75 29.3072 28.75C29.5172 28.75 29.7072 28.8 29.8872 28.9L33.2172 30.8C33.2272 30.81 33.2472 30.81 33.2572 30.82C33.8772 31.18 34.0472 32.1 33.7672 33.09L33.7472 33.16L46.6072 25.69C46.6372 25.67 46.6772 25.67 46.7072 25.65L47.4872 25.2L47.5172 25.22L47.5472 25.2L47.9672 25.44L46.7672 23.21L46.0572 21.89C45.7172 21.23 45.8272 20.16 46.3972 19.16C46.9672 18.18 47.8172 17.55 48.5572 17.5C48.6172 17.5 48.6472 17.5 48.6772 17.5ZM48.6772 17C48.6272 17 48.5872 17 48.5372 17.01C47.5972 17.08 46.6172 17.81 45.9772 18.92C45.3372 20.03 45.1972 21.29 45.6272 22.13L46.3372 23.46L47.0872 24.86L46.4872 25.21C46.4372 25.23 46.3972 25.25 46.3572 25.27L34.4072 32.22C34.4072 31.4 34.0972 30.74 33.5172 30.4C33.4972 30.39 33.4572 30.37 33.4272 30.36L30.1272 28.48C29.8772 28.34 29.6072 28.27 29.2972 28.27C28.3272 28.27 27.2772 29.02 26.5972 30.19C25.9572 31.3 25.8172 32.56 26.2472 33.4L27.7072 36.12L27.5072 36.24C27.3572 36.33 27.2572 36.49 27.2572 36.67V37.22C27.2372 37.33 27.2072 37.48 27.2072 37.63L27.1472 65.1C27.1472 65.25 27.1672 65.39 27.1972 65.51V66.04C27.1972 66.22 27.2872 66.38 27.4472 66.47L27.9872 66.78L28.0072 66.79C28.0772 66.85 28.1472 66.91 28.2372 66.95L46.2172 77.33C46.2772 77.36 46.3372 77.39 46.3972 77.41L46.4772 77.45C46.4972 77.46 46.5472 77.48 46.5772 77.5L47.2072 77.86C47.2372 77.89 47.2672 77.91 47.3072 77.93C47.3872 77.97 47.4672 78 47.5572 78C47.5872 78 47.6172 78 47.6572 77.99C47.7372 77.99 47.8072 77.97 47.8772 77.93L67.5872 66.48C67.7372 66.39 67.8372 66.23 67.8372 66.05L67.8972 36.66C67.8972 36.48 67.8072 36.32 67.6472 36.23L67.4072 36.09L69.0172 30.92C69.3772 29.65 69.0872 28.54 68.2772 28.07C68.2572 28.06 68.2272 28.04 68.1972 28.03L64.8972 26.15C64.6472 26.01 64.3772 25.94 64.0672 25.94C64.0172 25.94 63.9772 25.94 63.9272 25.95C62.9872 26.02 62.0072 26.75 61.3672 27.86C60.7272 28.97 60.5872 30.23 61.0172 31.07L62.0572 33.01L52.0072 27.19L53.6272 21.98C53.9872 20.71 53.6972 19.59 52.8872 19.13C52.8672 19.12 52.8272 19.1 52.7972 19.09L49.5072 17.22C49.2672 17.07 48.9872 17 48.6772 17Z" fill="#34576A"/>
</svg>
