<svg width="96" height="96" viewBox="0 0 96 96" fill="none" xmlns="http://www.w3.org/2000/svg">
<g clip-path="url(#clip0)">
<path d="M23.0391 40.2318L23.0661 28.9761" stroke="#34576A" stroke-width="0.75" stroke-miterlimit="10"/>
<path d="M23.0391 41.1971V41.1871" stroke="#34576A" stroke-width="0.75" stroke-miterlimit="10"/>
<path d="M46.9473 63.7887L46.9659 63.8073" stroke="#34576A" stroke-width="0.75" stroke-miterlimit="10"/>
<path d="M47.002 63.825L46.9834 63.8157" stroke="#34576A" stroke-width="0.75" stroke-miterlimit="10"/>
<path d="M23.0391 40.2318V41.1871" stroke="#34576A" stroke-width="0.75" stroke-miterlimit="10"/>
<path d="M46.984 63.8161L46.9653 63.8068" stroke="#34576A" stroke-width="0.75" stroke-miterlimit="10"/>
<path d="M23.0391 41.196V41.206" stroke="#34576A" stroke-width="0.75" stroke-miterlimit="10"/>
<path d="M57.5642 69.9437H57.5542" stroke="#34576A" stroke-width="0.75" stroke-miterlimit="10"/>
<path d="M65.6108 74.3506V74.4137" stroke="#34576A" stroke-width="0.75" stroke-miterlimit="10"/>
<path d="M64.9531 74.2244L65.0252 74.2694" stroke="#34576A" stroke-width="0.75" stroke-miterlimit="10"/>
<path d="M23.0664 28.5074V28.9761" stroke="#34576A" stroke-width="0.75" stroke-miterlimit="10"/>
<path d="M65.6559 53.1818L65.6108 74.3505" stroke="#34576A" stroke-width="0.75" stroke-miterlimit="10"/>
<path d="M64.9532 74.2243L57.5635 69.9437" stroke="#34576A" stroke-width="0.75" stroke-miterlimit="10"/>
<path d="M36.4668 57.7238L36.4948 57.7331" stroke="#34576A" stroke-width="0.75" stroke-miterlimit="10"/>
<path d="M65.6112 74.4136V74.6028L65.0254 74.2694" stroke="#34576A" stroke-width="0.75" stroke-miterlimit="10"/>
<path d="M57.5273 69.9167L57.5553 69.9447" stroke="#34576A" stroke-width="0.75" stroke-miterlimit="10"/>
<path d="M38.2148 19.7479L38.8367 19.3875L82.1024 44.0618" stroke="#34576A" stroke-width="0.75" stroke-miterlimit="10"/>
<path d="M23.0664 28.5074L23.6161 28.183" stroke="#34576A" stroke-width="0.75" stroke-miterlimit="10"/>
<path d="M38.2149 19.7479L23.6157 28.183" stroke="#34576A" stroke-width="0.75" stroke-miterlimit="10"/>
<path d="M23.2466 28.6066L65.6562 53.1818" stroke="#34576A" stroke-width="0.75" stroke-miterlimit="10"/>
<path d="M23.2472 28.6073L23.2192 28.5886" stroke="#34576A" stroke-width="0.75" stroke-miterlimit="10"/>
<path d="M23.2196 28.5886L23.0664 28.5074" stroke="#34576A" stroke-width="0.75" stroke-miterlimit="10"/>
<path d="M81.3818 65.8795L81.517 65.8074" stroke="#34576A" stroke-width="0.75" stroke-miterlimit="10"/>
<path d="M82.0843 54.813L82.0573 65.501L81.5166 65.8074" stroke="#34576A" stroke-width="0.75" stroke-miterlimit="10"/>
<path d="M82.1025 44.8368L82.0845 54.8129" stroke="#34576A" stroke-width="0.75" stroke-miterlimit="10"/>
<path d="M65.6108 74.4137V74.3506" stroke="#34576A" stroke-width="0.75" stroke-miterlimit="10"/>
<path d="M81.3814 65.8794L80.291 66.4832" stroke="#34576A" stroke-width="0.75" stroke-miterlimit="10"/>
<path d="M72.8745 70.5927L80.2912 66.4833" stroke="#34576A" stroke-width="0.75" stroke-miterlimit="10"/>
<path d="M65.6559 53.1818L65.6108 74.3505" stroke="#34576A" stroke-width="0.75" stroke-miterlimit="10"/>
<path d="M65.6108 74.4137V74.6209L72.8744 70.5927" stroke="#34576A" stroke-width="0.75" stroke-miterlimit="10"/>
<path d="M82.1025 44.8369V44.0619" stroke="#34576A" stroke-width="0.75" stroke-miterlimit="10"/>
<path d="M81.895 44.1886L81.923 44.1699" stroke="#34576A" stroke-width="0.75" stroke-miterlimit="10"/>
<path d="M81.9224 44.17L82.1026 44.0619" stroke="#34576A" stroke-width="0.75" stroke-miterlimit="10"/>
<path d="M65.6558 53.1818L81.895 44.188" stroke="#34576A" stroke-width="0.75" stroke-miterlimit="10"/>
<path d="M23.0391 41.1971V41.1871" stroke="#34576A" stroke-width="0.75" stroke-miterlimit="10"/>
<path d="M23.0391 40.2318V41.1871" stroke="#34576A" stroke-width="0.75" stroke-miterlimit="10"/>
<path d="M38.8188 19.6038C39.0532 19.6038 39.2875 19.6578 39.5037 19.775L81.4447 43.6923C81.643 43.8095 81.8052 43.9717 81.9223 44.1609" stroke="#34576A" stroke-width="0.75" stroke-miterlimit="10"/>
<path d="M23.0391 41.206V41.196" stroke="#34576A" stroke-width="0.75" stroke-miterlimit="10"/>
<path d="M81.5168 65.8074C81.4808 65.8344 81.4447 65.8705 81.3997 65.8975L72.8745 70.6017" stroke="#34576A" stroke-width="0.75" stroke-miterlimit="10"/>
<path d="M82.0843 54.813L82.0573 64.762C82.0573 65.1766 81.85 65.5641 81.5166 65.8074" stroke="#34576A" stroke-width="0.75" stroke-miterlimit="10"/>
<path d="M38.819 19.6038C38.5937 19.6038 38.3774 19.6668 38.1791 19.775L23.7242 28.1379C23.5259 28.2551 23.3637 28.4173 23.2466 28.6156" stroke="#34576A" stroke-width="0.75" stroke-miterlimit="10"/>
<path d="M82.0845 54.8129L82.1025 44.8368" stroke="#34576A" stroke-width="0.75" stroke-miterlimit="10"/>
<path d="M81.9224 44.1699C82.0395 44.3682 82.1026 44.5935 82.1026 44.8368" stroke="#34576A" stroke-width="0.75" stroke-miterlimit="10"/>
<path d="M23.2463 28.6066C23.1292 28.8048 23.0661 29.0301 23.0661 29.2644L23.0391 40.2318" stroke="#34576A" stroke-width="0.75" stroke-miterlimit="10"/>
<path d="M64.8811 74.1973L57.5635 69.9528" stroke="#34576A" stroke-width="0.75" stroke-miterlimit="10"/>
<path d="M57.5186 69.9347L57.5546 69.9527" stroke="#34576A" stroke-width="0.75" stroke-miterlimit="10"/>
<path d="M57.5642 69.9528H57.5542" stroke="#34576A" stroke-width="0.75" stroke-miterlimit="10"/>
<path d="M46.9834 63.8247L47.002 63.834" stroke="#34576A" stroke-width="0.75" stroke-miterlimit="10"/>
<path d="M46.9659 63.8164L46.9473 63.7977" stroke="#34576A" stroke-width="0.75" stroke-miterlimit="10"/>
<path d="M36.4668 57.7238L36.4948 57.7424" stroke="#34576A" stroke-width="0.75" stroke-miterlimit="10"/>
<path d="M46.984 63.825L46.9653 63.8157" stroke="#34576A" stroke-width="0.75" stroke-miterlimit="10"/>
<path d="M65.6112 74.4136C65.4129 74.4136 65.2056 74.3595 65.0254 74.2694" stroke="#34576A" stroke-width="0.75" stroke-miterlimit="10"/>
<path d="M65.6108 74.4137C65.8361 74.4137 66.0704 74.3506 66.2687 74.2334L72.8744 70.5927" stroke="#34576A" stroke-width="0.75" stroke-miterlimit="10"/>
<path d="M64.8809 74.1973L64.953 74.2333C64.98 74.2513 65.007 74.2513 65.025 74.2604" stroke="#34576A" stroke-width="0.75" stroke-miterlimit="10"/>
<path d="M46.9385 63.8247L46.9664 63.834" stroke="#34576A" stroke-width="0.75" stroke-miterlimit="10"/>
<path d="M38.2151 19.7479C38.1881 19.7569 38.161 19.7659 38.134 19.784L23.6881 28.1379C23.661 28.1559 23.643 28.174 23.625 28.192" stroke="#34576A" stroke-width="0.75" stroke-miterlimit="10"/>
<path d="M64.953 74.2243C64.9259 74.2153 64.8989 74.2063 64.8809 74.1973" stroke="#34576A" stroke-width="0.75" stroke-miterlimit="10"/>
<path d="M46.9753 63.8437L46.9653 63.8337" stroke="#34576A" stroke-width="0.75" stroke-miterlimit="10"/>
<path d="M23.066 28.9761C23.048 29.0662 23.03 29.1653 23.03 29.2645L23.0029 41.2051" stroke="#34576A" stroke-width="0.75" stroke-miterlimit="10"/>
<path d="M57.5635 69.9799L64.7459 74.1433C64.7909 74.1703 64.836 74.1794 64.8811 74.1974" stroke="#34576A" stroke-width="0.75" stroke-miterlimit="10"/>
<path d="M57.5186 69.9528L57.5546 69.9708" stroke="#34576A" stroke-width="0.75" stroke-miterlimit="10"/>
<path d="M36.4668 57.7507L36.4948 57.7694" stroke="#34576A" stroke-width="0.75" stroke-miterlimit="10"/>
<path d="M57.5642 69.9808L57.5542 69.9708" stroke="#34576A" stroke-width="0.75" stroke-miterlimit="10"/>
<path d="M23.0029 41.2331V41.2231" stroke="#34576A" stroke-width="0.75" stroke-miterlimit="10"/>
<path d="M47.0026 63.8614L46.9746 63.8428" stroke="#34576A" stroke-width="0.75" stroke-miterlimit="10"/>
<path d="M23.0029 41.2051V41.2237" stroke="#34576A" stroke-width="0.75" stroke-miterlimit="10"/>
<path d="M38.8186 19.6038C38.6114 19.6038 38.4041 19.6488 38.2148 19.7479" stroke="#34576A" stroke-width="0.75" stroke-miterlimit="10"/>
<path d="M81.3818 65.8794C81.7784 65.6451 82.0217 65.2215 82.0217 64.7619L82.0667 44.8368C82.0667 44.6025 82.0036 44.3772 81.8955 44.188" stroke="#34576A" stroke-width="0.75" stroke-miterlimit="10"/>
<path d="M23.2192 28.5885C23.3184 28.4263 23.4535 28.2911 23.6158 28.183" stroke="#34576A" stroke-width="0.75" stroke-miterlimit="10"/>
<path d="M81.3814 65.8794C81.3724 65.8794 81.3724 65.8884 81.3634 65.8884L80.291 66.4742" stroke="#34576A" stroke-width="0.75" stroke-miterlimit="10"/>
<path d="M23.2196 28.5886C23.1475 28.7058 23.0934 28.841 23.0664 28.9761" stroke="#34576A" stroke-width="0.75" stroke-miterlimit="10"/>
<path d="M65.611 74.3505C65.3857 74.3595 65.1694 74.3055 64.9531 74.2244" stroke="#34576A" stroke-width="0.75" stroke-miterlimit="10"/>
<path d="M65.6108 74.3506C65.8812 74.3416 66.1515 74.2785 66.4039 74.1343L80.3001 66.4742" stroke="#34576A" stroke-width="0.75" stroke-miterlimit="10"/>
<path d="M38.8188 19.6038C39.0441 19.6038 39.2604 19.6668 39.4587 19.775L81.4087 43.6923C81.6159 43.8095 81.7781 43.9807 81.8953 44.179" stroke="#34576A" stroke-width="0.75" stroke-miterlimit="10"/>
<path d="M30.8252 72.5933L30.8973 72.6293" stroke="#34576A" stroke-width="0.75" stroke-miterlimit="10"/>
<path d="M31.4473 72.7194L31.5013 57.2191" stroke="#34576A" stroke-width="0.75" stroke-miterlimit="10"/>
<path d="M31.4472 72.7735V72.9537L30.8975 72.6293" stroke="#34576A" stroke-width="0.75" stroke-miterlimit="10"/>
<path d="M13.3784 61.7881L13.3964 55.1644" stroke="#34576A" stroke-width="0.75" stroke-miterlimit="10"/>
<path d="M13.8203 62.7523L13.9645 62.8334" stroke="#34576A" stroke-width="0.75" stroke-miterlimit="10"/>
<path d="M13.4145 47.2159L13.3965 55.1644" stroke="#34576A" stroke-width="0.75" stroke-miterlimit="10"/>
<path d="M13.3786 61.7881L13.3696 62.0584" stroke="#34576A" stroke-width="0.75" stroke-miterlimit="10"/>
<path d="M13.3696 62.0585V62.491L13.8202 62.7524" stroke="#34576A" stroke-width="0.75" stroke-miterlimit="10"/>
<path d="M31.4473 72.7734V72.7194" stroke="#34576A" stroke-width="0.75" stroke-miterlimit="10"/>
<path d="M13.4146 47.2159V46.7563" stroke="#34576A" stroke-width="0.75" stroke-miterlimit="10"/>
<path d="M30.8254 72.5933L13.9644 62.8335" stroke="#34576A" stroke-width="0.75" stroke-miterlimit="10"/>
<path d="M27.7344 38.4836L28.3201 38.1411L45.5687 47.7838" stroke="#34576A" stroke-width="0.75" stroke-miterlimit="10"/>
<path d="M46.4248 48.2614L46.9925 48.5768" stroke="#34576A" stroke-width="0.75" stroke-miterlimit="10"/>
<path d="M47.0467 48.6038L46.9927 48.5768" stroke="#34576A" stroke-width="0.75" stroke-miterlimit="10"/>
<path d="M45.5688 47.7837L46.425 48.2613" stroke="#34576A" stroke-width="0.75" stroke-miterlimit="10"/>
<path d="M27.7342 38.4835L23.0391 41.1961" stroke="#34576A" stroke-width="0.75" stroke-miterlimit="10"/>
<path d="M13.4146 46.7564L13.9372 46.459" stroke="#34576A" stroke-width="0.75" stroke-miterlimit="10"/>
<path d="M13.937 46.459L23.0029 41.2231" stroke="#34576A" stroke-width="0.75" stroke-miterlimit="10"/>
<path d="M23.0029 41.2231L23.039 41.196" stroke="#34576A" stroke-width="0.75" stroke-miterlimit="10"/>
<path d="M13.5859 46.8555L31.5014 57.2191" stroke="#34576A" stroke-width="0.75" stroke-miterlimit="10"/>
<path d="M13.5865 46.8558L13.5679 46.8464" stroke="#34576A" stroke-width="0.75" stroke-miterlimit="10"/>
<path d="M13.5678 46.8465L13.4146 46.7563" stroke="#34576A" stroke-width="0.75" stroke-miterlimit="10"/>
<path d="M31.4473 72.7735V72.9718L36.4939 70.1781" stroke="#34576A" stroke-width="0.75" stroke-miterlimit="10"/>
<path d="M47.0105 60.7246L47.0015 63.8247" stroke="#34576A" stroke-width="0.75" stroke-miterlimit="10"/>
<path d="M36.4937 70.1781L36.5838 70.124" stroke="#34576A" stroke-width="0.75" stroke-miterlimit="10"/>
<path d="M47.0015 63.8617V63.8337" stroke="#34576A" stroke-width="0.75" stroke-miterlimit="10"/>
<path d="M31.4473 72.7194L31.5013 57.2191" stroke="#34576A" stroke-width="0.75" stroke-miterlimit="10"/>
<path d="M47.0464 48.7389V48.7029" stroke="#34576A" stroke-width="0.75" stroke-miterlimit="10"/>
<path d="M31.4473 72.7734V72.7194" stroke="#34576A" stroke-width="0.75" stroke-miterlimit="10"/>
<path d="M36.594 70.124H36.584" stroke="#34576A" stroke-width="0.75" stroke-miterlimit="10"/>
<path d="M47.0464 48.6038V48.7029" stroke="#34576A" stroke-width="0.75" stroke-miterlimit="10"/>
<path d="M46.9653 64.3745L47.0014 64.3475V63.8608" stroke="#34576A" stroke-width="0.75" stroke-miterlimit="10"/>
<path d="M47.0015 63.8247V63.8347" stroke="#34576A" stroke-width="0.75" stroke-miterlimit="10"/>
<path d="M46.8761 48.7029L46.8481 48.7215" stroke="#34576A" stroke-width="0.75" stroke-miterlimit="10"/>
<path d="M33.6011 56.0566L44.4243 50.0637" stroke="#34576A" stroke-width="0.75" stroke-miterlimit="10"/>
<path d="M46.8493 48.7209L46.8213 48.7303" stroke="#34576A" stroke-width="0.75" stroke-miterlimit="10"/>
<path d="M31.5015 57.2191L33.5742 56.0746" stroke="#34576A" stroke-width="0.75" stroke-miterlimit="10"/>
<path d="M44.4243 50.0637L44.6857 49.9105" stroke="#34576A" stroke-width="0.75" stroke-miterlimit="10"/>
<path d="M33.5737 56.0749L33.5924 56.0656" stroke="#34576A" stroke-width="0.75" stroke-miterlimit="10"/>
<path d="M33.6018 56.0565L33.5918 56.0665" stroke="#34576A" stroke-width="0.75" stroke-miterlimit="10"/>
<path d="M45.3252 49.559L46.7491 48.766" stroke="#34576A" stroke-width="0.75" stroke-miterlimit="10"/>
<path d="M47.0467 48.6038L46.8755 48.7029" stroke="#34576A" stroke-width="0.75" stroke-miterlimit="10"/>
<path d="M44.6855 49.9105L45.3254 49.5591" stroke="#34576A" stroke-width="0.75" stroke-miterlimit="10"/>
<path d="M46.8211 48.73L46.749 48.766" stroke="#34576A" stroke-width="0.75" stroke-miterlimit="10"/>
<path d="M46.8394 48.6669C46.8484 48.6849 46.8574 48.6939 46.8664 48.7029" stroke="#34576A" stroke-width="0.75" stroke-miterlimit="10"/>
<path d="M13.3965 55.1644L13.4235 47.4773C13.4235 47.252 13.4866 47.0447 13.5947 46.8555" stroke="#34576A" stroke-width="0.75" stroke-miterlimit="10"/>
<path d="M47.0104 60.7246L47.0014 63.6444C47.0014 63.6985 46.9834 63.7526 46.9834 63.8066" stroke="#34576A" stroke-width="0.75" stroke-miterlimit="10"/>
<path d="M46.8848 48.7215C46.8848 48.7122 46.8755 48.7122 46.8755 48.7029" stroke="#34576A" stroke-width="0.75" stroke-miterlimit="10"/>
<path d="M13.3784 61.7881L13.3964 55.1644" stroke="#34576A" stroke-width="0.75" stroke-miterlimit="10"/>
<path d="M30.8974 72.6292C30.8794 72.6202 30.8523 72.6112 30.8253 72.6022L30.7622 72.5662" stroke="#34576A" stroke-width="0.75" stroke-miterlimit="10"/>
<path d="M31.4473 72.7735C31.6635 72.7735 31.8798 72.7194 32.0691 72.6023L36.4849 70.1691" stroke="#34576A" stroke-width="0.75" stroke-miterlimit="10"/>
<path d="M46.9834 63.8157V63.8257" stroke="#34576A" stroke-width="0.75" stroke-miterlimit="10"/>
<path d="M31.4474 72.7735C31.2582 72.7735 31.0689 72.7194 30.8887 72.6383" stroke="#34576A" stroke-width="0.75" stroke-miterlimit="10"/>
<path d="M46.4248 48.2614C46.596 48.3605 46.7402 48.5047 46.8393 48.6669" stroke="#34576A" stroke-width="0.75" stroke-miterlimit="10"/>
<path d="M46.9653 63.9239C46.9743 63.8968 46.9743 63.8698 46.9743 63.8337" stroke="#34576A" stroke-width="0.75" stroke-miterlimit="10"/>
<path d="M30.7624 72.5662L14.0004 62.8605C13.9914 62.8515 13.9824 62.8425 13.9644 62.8335" stroke="#34576A" stroke-width="0.75" stroke-miterlimit="10"/>
<path d="M13.3784 61.7881C13.3784 62.2207 13.6037 62.6082 13.9732 62.8335" stroke="#34576A" stroke-width="0.75" stroke-miterlimit="10"/>
<path d="M36.594 70.115H36.584" stroke="#34576A" stroke-width="0.75" stroke-miterlimit="10"/>
<path d="M46.8843 48.7209C46.8936 48.7303 46.8936 48.7396 46.8936 48.7489" stroke="#34576A" stroke-width="0.75" stroke-miterlimit="10"/>
<path d="M46.9746 63.8433C46.9746 63.834 46.9746 63.8247 46.9746 63.8247" stroke="#34576A" stroke-width="0.75" stroke-miterlimit="10"/>
<path d="M45.5688 47.7837L46.425 48.2523V48.2613" stroke="#34576A" stroke-width="0.75" stroke-miterlimit="10"/>
<path d="M45.5686 47.7837L28.9509 38.5106C28.7526 38.3934 28.5273 38.3394 28.311 38.3484" stroke="#34576A" stroke-width="0.75" stroke-miterlimit="10"/>
<path d="M13.5859 46.8555C13.6941 46.6753 13.8473 46.5221 14.0365 46.4049L23.0033 41.2231" stroke="#34576A" stroke-width="0.75" stroke-miterlimit="10"/>
<path d="M36.4937 70.1691L36.5838 70.115" stroke="#34576A" stroke-width="0.75" stroke-miterlimit="10"/>
<path d="M23.0029 41.2321L23.039 41.2051" stroke="#34576A" stroke-width="0.75" stroke-miterlimit="10"/>
<path d="M28.302 38.3484C28.0947 38.3484 27.8784 38.4025 27.6982 38.5106L23.0391 41.2051" stroke="#34576A" stroke-width="0.75" stroke-miterlimit="10"/>
<path d="M30.8255 72.5932C30.7985 72.5842 30.7805 72.5752 30.7534 72.5662" stroke="#34576A" stroke-width="0.75" stroke-miterlimit="10"/>
<path d="M36.4937 70.151L36.5748 70.0969" stroke="#34576A" stroke-width="0.75" stroke-miterlimit="10"/>
<path d="M46.8481 48.73C46.8575 48.7393 46.8575 48.7486 46.8575 48.7579" stroke="#34576A" stroke-width="0.75" stroke-miterlimit="10"/>
<path d="M28.3022 38.3484C28.5095 38.3484 28.7258 38.4025 28.906 38.5106L46.3799 48.2524C46.5602 48.3605 46.7044 48.5047 46.8125 48.6759" stroke="#34576A" stroke-width="0.75" stroke-miterlimit="10"/>
<path d="M30.8252 72.5933C31.0235 72.6744 31.2397 72.7194 31.447 72.7194" stroke="#34576A" stroke-width="0.75" stroke-miterlimit="10"/>
<path d="M46.8481 48.7209V48.7309" stroke="#34576A" stroke-width="0.75" stroke-miterlimit="10"/>
<path d="M31.4473 72.7193C31.7086 72.7103 31.9609 72.6472 32.1952 72.5121L36.4939 70.142" stroke="#34576A" stroke-width="0.75" stroke-miterlimit="10"/>
<path d="M46.9473 63.7977C46.9473 63.8071 46.9473 63.8164 46.9473 63.8164" stroke="#34576A" stroke-width="0.75" stroke-miterlimit="10"/>
<path d="M46.9653 63.6625C46.9653 63.7075 46.9563 63.7436 46.9473 63.7886" stroke="#34576A" stroke-width="0.75" stroke-miterlimit="10"/>
<path d="M46.9473 63.7887V63.7987" stroke="#34576A" stroke-width="0.75" stroke-miterlimit="10"/>
<path d="M23.0029 41.2051L14.0001 46.4049C13.9731 46.4229 13.955 46.4409 13.937 46.45" stroke="#34576A" stroke-width="0.75" stroke-miterlimit="10"/>
<path d="M13.5675 46.8464C13.4954 46.9636 13.4504 47.0807 13.4233 47.2159" stroke="#34576A" stroke-width="0.75" stroke-miterlimit="10"/>
<path d="M13.3696 62.0585C13.4327 62.3378 13.5859 62.5721 13.8112 62.7524" stroke="#34576A" stroke-width="0.75" stroke-miterlimit="10"/>
<path d="M46.9653 63.6625C46.9653 63.6535 46.9653 63.6535 46.9653 63.6445L46.9743 60.7427" stroke="#34576A" stroke-width="0.75" stroke-miterlimit="10"/>
<path d="M46.8213 48.6759C46.8303 48.6939 46.8393 48.7029 46.8483 48.712" stroke="#34576A" stroke-width="0.75" stroke-miterlimit="10"/>
<path d="M13.4144 47.2159C13.3964 47.3061 13.3783 47.3962 13.3783 47.4863L13.3423 61.788C13.3423 61.8782 13.3603 61.9683 13.3783 62.0584" stroke="#34576A" stroke-width="0.75" stroke-miterlimit="10"/>
<path d="M27.7344 38.4836C27.9146 38.3934 28.1039 38.3484 28.3021 38.3484" stroke="#34576A" stroke-width="0.75" stroke-miterlimit="10"/>
<path d="M27.7342 38.4835C27.7072 38.4925 27.6801 38.5015 27.6621 38.5106L23.0391 41.1871" stroke="#34576A" stroke-width="0.75" stroke-miterlimit="10"/>
<path d="M30.7625 72.5662C30.7175 72.5482 30.6724 72.5392 30.6363 72.5121L13.9645 62.8605C13.9104 62.8334 13.8654 62.7884 13.8203 62.7523" stroke="#34576A" stroke-width="0.75" stroke-miterlimit="10"/>
<path d="M36.5847 70.0969H36.5747" stroke="#34576A" stroke-width="0.75" stroke-miterlimit="10"/>
<path d="M13.5679 46.8465C13.658 46.6933 13.7932 46.5671 13.9464 46.459" stroke="#34576A" stroke-width="0.75" stroke-miterlimit="10"/>
<path d="M23.039 41.1871L23.0029 41.2052" stroke="#34576A" stroke-width="0.75" stroke-miterlimit="10"/>
<path d="M57.5273 54.9661V54.6597" stroke="#34576A" stroke-width="0.75" stroke-miterlimit="10"/>
<path d="M46.9653 64.3744V63.9238" stroke="#34576A" stroke-width="0.75" stroke-miterlimit="10"/>
<path d="M46.9653 63.8343V63.8157" stroke="#34576A" stroke-width="0.75" stroke-miterlimit="10"/>
<path d="M46.9565 60.7607L46.9655 63.6625" stroke="#34576A" stroke-width="0.75" stroke-miterlimit="10"/>
<path d="M47.5064 76.1078L47.3262 76.2069" stroke="#34576A" stroke-width="0.75" stroke-miterlimit="10"/>
<path d="M57.248 70.4844L57.5544 70.3042V69.9888" stroke="#34576A" stroke-width="0.75" stroke-miterlimit="10"/>
<path d="M47.5063 76.1078L57.0408 70.6016" stroke="#34576A" stroke-width="0.75" stroke-miterlimit="10"/>
<path d="M46.9924 76.2431L46.9653 64.3745" stroke="#34576A" stroke-width="0.75" stroke-miterlimit="10"/>
<path d="M46.9927 76.243V76.271" stroke="#34576A" stroke-width="0.75" stroke-miterlimit="10"/>
<path d="M47.3261 76.2069L46.9927 76.4052V76.27" stroke="#34576A" stroke-width="0.75" stroke-miterlimit="10"/>
<path d="M46.9653 63.8068V63.8168" stroke="#34576A" stroke-width="0.75" stroke-miterlimit="10"/>
<path d="M46.9653 63.9239V63.8337" stroke="#34576A" stroke-width="0.75" stroke-miterlimit="10"/>
<path d="M57.0405 70.6017L57.2478 70.4845" stroke="#34576A" stroke-width="0.75" stroke-miterlimit="10"/>
<path d="M57.5542 69.9714V69.9528" stroke="#34576A" stroke-width="0.75" stroke-miterlimit="10"/>
<path d="M57.5273 54.9661L57.5544 69.9437" stroke="#34576A" stroke-width="0.75" stroke-miterlimit="10"/>
<path d="M46.9653 63.8067V63.6625" stroke="#34576A" stroke-width="0.75" stroke-miterlimit="10"/>
<path d="M57.5542 69.9537V69.9437" stroke="#34576A" stroke-width="0.75" stroke-miterlimit="10"/>
<path d="M57.5542 69.9895V69.9708" stroke="#34576A" stroke-width="0.75" stroke-miterlimit="10"/>
<path d="M46.8394 48.6669L46.9926 48.5768" stroke="#34576A" stroke-width="0.75" stroke-miterlimit="10"/>
<path d="M47.4433 48.793L47.0287 48.5587L46.9927 48.5767" stroke="#34576A" stroke-width="0.75" stroke-miterlimit="10"/>
<path d="M36.4575 54.6597L44.424 50.0637" stroke="#34576A" stroke-width="0.75" stroke-miterlimit="10"/>
<path d="M44.4243 50.0637L46.8215 48.6759" stroke="#34576A" stroke-width="0.75" stroke-miterlimit="10"/>
<path d="M47.4434 48.7931L57.2031 54.4705" stroke="#34576A" stroke-width="0.75" stroke-miterlimit="10"/>
<path d="M57.5276 54.6597L57.2031 54.4705" stroke="#34576A" stroke-width="0.75" stroke-miterlimit="10"/>
<path d="M46.8399 48.6669L46.8213 48.6762" stroke="#34576A" stroke-width="0.75" stroke-miterlimit="10"/>
<path d="M47.0107 60.7246L46.9746 60.7516" stroke="#34576A" stroke-width="0.75" stroke-miterlimit="10"/>
<path d="M57.4281 54.7137L57.374 54.7408" stroke="#34576A" stroke-width="0.75" stroke-miterlimit="10"/>
<path d="M46.9565 60.761L46.9752 60.7517" stroke="#34576A" stroke-width="0.75" stroke-miterlimit="10"/>
<path d="M57.4282 54.7137L57.5274 54.6597" stroke="#34576A" stroke-width="0.75" stroke-miterlimit="10"/>
<path d="M57.3743 54.7408L47.0107 60.7247" stroke="#34576A" stroke-width="0.75" stroke-miterlimit="10"/>
<path d="M46.9653 63.8068V63.8168" stroke="#34576A" stroke-width="0.75" stroke-miterlimit="10"/>
<path d="M36.4937 70.1691V70.1791" stroke="#34576A" stroke-width="0.75" stroke-miterlimit="10"/>
<path d="M44.0459 74.702L46.9928 76.4143V76.2701" stroke="#34576A" stroke-width="0.75" stroke-miterlimit="10"/>
<path d="M46.9653 63.8157V63.8343" stroke="#34576A" stroke-width="0.75" stroke-miterlimit="10"/>
<path d="M36.4938 69.6914L36.4668 57.7507" stroke="#34576A" stroke-width="0.75" stroke-miterlimit="10"/>
<path d="M46.9653 63.6625V63.8067" stroke="#34576A" stroke-width="0.75" stroke-miterlimit="10"/>
<path d="M36.4575 54.6597V55.2995" stroke="#34576A" stroke-width="0.75" stroke-miterlimit="10"/>
<path d="M46.9927 76.271V76.243" stroke="#34576A" stroke-width="0.75" stroke-miterlimit="10"/>
<path d="M46.9924 76.2431L46.9653 64.3745" stroke="#34576A" stroke-width="0.75" stroke-miterlimit="10"/>
<path d="M36.4575 55.2996L36.4665 57.7237" stroke="#34576A" stroke-width="0.75" stroke-miterlimit="10"/>
<path d="M46.9653 64.3744V63.9238" stroke="#34576A" stroke-width="0.75" stroke-miterlimit="10"/>
<path d="M44.0455 74.702L37.0073 70.6106" stroke="#34576A" stroke-width="0.75" stroke-miterlimit="10"/>
<path d="M36.4668 57.7238V57.7517" stroke="#34576A" stroke-width="0.75" stroke-miterlimit="10"/>
<path d="M37.0073 70.6107L36.4937 70.3133V70.1781" stroke="#34576A" stroke-width="0.75" stroke-miterlimit="10"/>
<path d="M46.9565 60.7607L46.9655 63.6625" stroke="#34576A" stroke-width="0.75" stroke-miterlimit="10"/>
<path d="M46.9653 63.9239V63.8337" stroke="#34576A" stroke-width="0.75" stroke-miterlimit="10"/>
<path d="M36.4937 69.6914V70.151" stroke="#34576A" stroke-width="0.75" stroke-miterlimit="10"/>
<path d="M36.4937 70.1696V70.151" stroke="#34576A" stroke-width="0.75" stroke-miterlimit="10"/>
<path d="M36.6108 54.7499L46.9564 60.7608" stroke="#34576A" stroke-width="0.75" stroke-miterlimit="10"/>
<path d="M36.4575 54.6597L36.6017 54.7408" stroke="#34576A" stroke-width="0.75" stroke-miterlimit="10"/>
<path d="M36.6121 54.7508L36.6021 54.7408" stroke="#34576A" stroke-width="0.75" stroke-miterlimit="10"/>
<path d="M46.8935 48.7479C46.8845 48.7479 46.8664 48.7479 46.8574 48.7479" stroke="#34576A" stroke-width="0.75" stroke-miterlimit="10"/>
<path d="M57.3739 54.7409C57.2838 54.5787 57.1486 54.4435 56.9774 54.3444L47.5781 48.8832C47.4159 48.7841 47.2266 48.739 47.0464 48.739" stroke="#34576A" stroke-width="0.75" stroke-miterlimit="10"/>
<path d="M36.4665 57.7237L36.4575 55.2996" stroke="#34576A" stroke-width="0.75" stroke-miterlimit="10"/>
<path d="M57.5186 69.9533C57.5186 69.944 57.5186 69.9347 57.5186 69.9347" stroke="#34576A" stroke-width="0.75" stroke-miterlimit="10"/>
<path d="M36.4668 57.7507L36.4938 69.6914" stroke="#34576A" stroke-width="0.75" stroke-miterlimit="10"/>
<path d="M47.5063 76.1078C47.5154 76.0988 47.5334 76.0988 47.5424 76.0898L57.0048 70.6286C57.0138 70.6196 57.0228 70.6106 57.0408 70.6016" stroke="#34576A" stroke-width="0.75" stroke-miterlimit="10"/>
<path d="M36.6108 54.7498C36.6919 54.6146 36.8001 54.5065 36.9353 54.4073" stroke="#34576A" stroke-width="0.75" stroke-miterlimit="10"/>
<path d="M36.8 70.4394C36.7099 70.3493 36.6468 70.2321 36.5928 70.115" stroke="#34576A" stroke-width="0.75" stroke-miterlimit="10"/>
<path d="M46.5327 76.1259C46.6769 76.1979 46.8301 76.234 46.9923 76.234" stroke="#34576A" stroke-width="0.75" stroke-miterlimit="10"/>
<path d="M36.5928 70.125V70.115" stroke="#34576A" stroke-width="0.75" stroke-miterlimit="10"/>
<path d="M36.5839 70.097C36.5749 70.0699 36.5569 70.0339 36.5479 70.0068" stroke="#34576A" stroke-width="0.75" stroke-miterlimit="10"/>
<path d="M36.5117 54.9842C36.5388 54.9031 36.5658 54.822 36.6108 54.7499" stroke="#34576A" stroke-width="0.75" stroke-miterlimit="10"/>
<path d="M44.0455 74.702L37.0344 70.6376C37.0253 70.6286 37.0163 70.6196 37.0073 70.6106" stroke="#34576A" stroke-width="0.75" stroke-miterlimit="10"/>
<path d="M47.5063 76.1078C47.3441 76.1889 47.1729 76.243 46.9927 76.243" stroke="#34576A" stroke-width="0.75" stroke-miterlimit="10"/>
<path d="M57.0405 70.6016C57.2838 70.4484 57.4551 70.2231 57.5182 69.9528" stroke="#34576A" stroke-width="0.75" stroke-miterlimit="10"/>
<path d="M57.5279 69.9167L57.5186 69.9354" stroke="#34576A" stroke-width="0.75" stroke-miterlimit="10"/>
<path d="M46.5688 48.8472C46.5418 48.8652 46.5057 48.8652 46.4787 48.8832L44.6943 49.9196" stroke="#34576A" stroke-width="0.75" stroke-miterlimit="10"/>
<path d="M36.5933 70.1156C36.5933 70.1062 36.584 70.1062 36.584 70.0969" stroke="#34576A" stroke-width="0.75" stroke-miterlimit="10"/>
<path d="M44.6854 49.9105L37.0074 54.3443C36.9803 54.3624 36.9533 54.3894 36.9263 54.4074" stroke="#34576A" stroke-width="0.75" stroke-miterlimit="10"/>
<path d="M36.4668 57.7517V57.7238" stroke="#34576A" stroke-width="0.75" stroke-miterlimit="10"/>
<path d="M57.374 54.7408C57.4732 54.9031 57.5272 55.0923 57.5272 55.2906L57.5543 69.6734C57.5543 69.7545 57.5362 69.8356 57.5182 69.9167" stroke="#34576A" stroke-width="0.75" stroke-miterlimit="10"/>
<path d="M47.0468 48.739C46.9927 48.739 46.9476 48.748 46.8936 48.757" stroke="#34576A" stroke-width="0.75" stroke-miterlimit="10"/>
<path d="M36.8003 70.4395C36.8634 70.5025 36.9355 70.5566 37.0076 70.6107" stroke="#34576A" stroke-width="0.75" stroke-miterlimit="10"/>
<path d="M36.4937 69.6914C36.4937 69.7995 36.5117 69.9077 36.5477 70.0068" stroke="#34576A" stroke-width="0.75" stroke-miterlimit="10"/>
<path d="M46.5688 48.8471C46.6319 48.8201 46.695 48.793 46.7581 48.775" stroke="#34576A" stroke-width="0.75" stroke-miterlimit="10"/>
<path d="M46.749 48.766C46.7851 48.7569 46.8211 48.7569 46.8572 48.7479" stroke="#34576A" stroke-width="0.75" stroke-miterlimit="10"/>
<path d="M44.0459 74.702L46.443 76.0898C46.4701 76.1079 46.5061 76.1169 46.5332 76.1259" stroke="#34576A" stroke-width="0.75" stroke-miterlimit="10"/>
<path d="M36.5116 54.9841C36.4846 55.0833 36.4575 55.1914 36.4575 55.2995" stroke="#34576A" stroke-width="0.75" stroke-miterlimit="10"/>
<path d="M57.4282 54.7137C57.4733 54.7949 57.5093 54.876 57.5274 54.9661" stroke="#34576A" stroke-width="0.75" stroke-miterlimit="10"/>
<path d="M57.2482 70.4845C57.2121 70.5115 57.1761 70.5476 57.14 70.5656L47.4523 76.1619C47.4163 76.189 47.3712 76.198 47.3262 76.216" stroke="#34576A" stroke-width="0.75" stroke-miterlimit="10"/>
<path d="M36.5119 54.9841C36.4939 55.0472 36.4849 55.1103 36.4849 55.1734L36.4939 57.7327" stroke="#34576A" stroke-width="0.75" stroke-miterlimit="10"/>
<path d="M46.8212 48.73C46.7491 48.748 46.677 48.775 46.6139 48.8201L46.5688 48.8471" stroke="#34576A" stroke-width="0.75" stroke-miterlimit="10"/>
<path d="M36.5117 54.9842C36.5297 54.9031 36.5568 54.8129 36.6018 54.7408" stroke="#34576A" stroke-width="0.75" stroke-miterlimit="10"/>
<path d="M36.6021 54.7408C36.6741 54.6056 36.7913 54.4885 36.9265 54.4073H36.9355" stroke="#34576A" stroke-width="0.75" stroke-miterlimit="10"/>
<path d="M57.5634 69.9437C57.5724 69.8986 57.5814 69.8536 57.5814 69.7995L57.5544 55.1553C57.5544 55.0922 57.5454 55.0291 57.5273 54.9661" stroke="#34576A" stroke-width="0.75" stroke-miterlimit="10"/>
<path d="M36.8003 70.4395C36.8454 70.4845 36.8994 70.5296 36.9535 70.5566L46.5331 76.1259" stroke="#34576A" stroke-width="0.75" stroke-miterlimit="10"/>
<path d="M47.3258 76.2069C47.2177 76.252 47.1006 76.27 46.9834 76.27" stroke="#34576A" stroke-width="0.75" stroke-miterlimit="10"/>
<path d="M46.5327 76.1259L46.5778 76.1529C46.7039 76.225 46.8481 76.261 46.9923 76.27" stroke="#34576A" stroke-width="0.75" stroke-miterlimit="10"/>
<path d="M36.5479 70.0068C36.5569 70.0429 36.5659 70.0699 36.5749 70.097" stroke="#34576A" stroke-width="0.75" stroke-miterlimit="10"/>
<path d="M36.5747 70.0969C36.5747 70.1062 36.584 70.1062 36.584 70.1156" stroke="#34576A" stroke-width="0.75" stroke-miterlimit="10"/>
<path d="M36.4937 57.7328V57.7428" stroke="#34576A" stroke-width="0.75" stroke-miterlimit="10"/>
<path d="M57.5635 69.9804C57.5635 69.9711 57.5635 69.9618 57.5635 69.9618" stroke="#34576A" stroke-width="0.75" stroke-miterlimit="10"/>
<path d="M36.8003 70.4394C36.7011 70.3493 36.6381 70.2412 36.584 70.124" stroke="#34576A" stroke-width="0.75" stroke-miterlimit="10"/>
<path d="M57.5635 69.9437V69.9537" stroke="#34576A" stroke-width="0.75" stroke-miterlimit="10"/>
<path d="M36.4937 57.7698V57.7418" stroke="#34576A" stroke-width="0.75" stroke-miterlimit="10"/>
<path d="M36.584 70.115V70.125" stroke="#34576A" stroke-width="0.75" stroke-miterlimit="10"/>
<path d="M36.4937 57.7688L36.5207 69.8086C36.5207 69.8807 36.5297 69.9437 36.5477 70.0068" stroke="#34576A" stroke-width="0.75" stroke-miterlimit="10"/>
<path d="M46.8213 48.73C46.8306 48.73 46.8399 48.73 46.8493 48.73" stroke="#34576A" stroke-width="0.75" stroke-miterlimit="10"/>
<path d="M46.8842 48.7209C46.8752 48.7209 46.8572 48.7209 46.8481 48.7209" stroke="#34576A" stroke-width="0.75" stroke-miterlimit="10"/>
<path d="M47.4434 48.7931C47.4614 48.8021 47.4794 48.8021 47.4974 48.8111L57.122 54.3984C57.1581 54.4165 57.1761 54.4435 57.2122 54.4615" stroke="#34576A" stroke-width="0.75" stroke-miterlimit="10"/>
<path d="M57.5542 69.9895C57.5542 69.9802 57.5542 69.9802 57.5542 69.9708" stroke="#34576A" stroke-width="0.75" stroke-miterlimit="10"/>
<path d="M57.2031 54.4705C57.2932 54.5426 57.3743 54.6237 57.4284 54.7138" stroke="#34576A" stroke-width="0.75" stroke-miterlimit="10"/>
<path d="M46.5688 48.8472L45.3252 49.5591" stroke="#34576A" stroke-width="0.75" stroke-miterlimit="10"/>
<path d="M47.4429 48.7931C47.3167 48.73 47.1816 48.694 47.0464 48.694" stroke="#34576A" stroke-width="0.75" stroke-miterlimit="10"/>
<path d="M57.248 70.4844C57.4012 70.3583 57.5094 70.1871 57.5544 69.9978" stroke="#34576A" stroke-width="0.75" stroke-miterlimit="10"/>
<path d="M36.9355 54.4074L45.3255 49.5591" stroke="#34576A" stroke-width="0.75" stroke-miterlimit="10"/>
<path d="M47.0465 48.7029C46.9924 48.7029 46.9383 48.7119 46.8843 48.7209" stroke="#34576A" stroke-width="0.75" stroke-miterlimit="10"/>
<path d="M82.1024 44.8368V44.0708L38.8367 19.3875L38.2149 19.7479C38.1878 19.7569 38.1608 19.7659 38.1338 19.784L23.6878 28.1379C23.6608 28.1559 23.6428 28.174 23.6248 28.192L23.075 28.5074V28.985C23.057 29.0751 23.039 29.1743 23.039 29.2734L23.0029 41.205L14.0001 46.4049C13.9731 46.4229 13.9551 46.4409 13.9371 46.4499L13.4144 46.7563V47.2069C13.3964 47.297 13.3783 47.3871 13.3783 47.4773L13.3423 61.788C13.3423 61.8781 13.3603 61.9682 13.3783 62.0584V62.4909L13.8199 62.7523C13.865 62.7883 13.91 62.8334 13.9641 62.8604L30.6359 72.5121C30.681 72.5391 30.7261 72.5481 30.7621 72.5661L30.8252 72.6022C30.8432 72.6112 30.8703 72.6202 30.8973 72.6292L31.456 72.9536V72.7734V72.9717L36.4936 70.178V70.3132L37.0073 70.6106C37.0163 70.6196 37.0253 70.6286 37.0343 70.6376L44.0455 74.7019L46.9924 76.4142V76.27V76.4052L47.3348 76.2069C47.3799 76.1889 47.4249 76.1799 47.461 76.1528L57.1487 70.5565C57.1847 70.5295 57.2208 70.5024 57.2568 70.4754L57.5632 70.2952V69.9797C57.5632 69.9707 57.5632 69.9707 57.5632 69.9617L64.7456 74.1252C64.7907 74.1522 64.8358 74.1612 64.8808 74.1792L64.9529 74.2153C64.9799 74.2333 65.007 74.2333 65.025 74.2423L65.6108 74.5848V74.3865V74.5938L72.8743 70.5745L81.4085 65.8704C81.4535 65.8433 81.4806 65.8073 81.5256 65.7802L82.0663 65.4829L82.0844 56.7594L82.1024 44.8368Z" stroke="#34576A" stroke-width="0.75" stroke-miterlimit="10" stroke-linecap="round" stroke-linejoin="round"/>
</g>
<defs>
<clipPath id="clip0">
<rect width="69.445" height="58" fill="white" transform="translate(13 19)"/>
</clipPath>
</defs>
</svg>
