<?xml version="1.0" encoding="utf-8"?>
<!-- Generator: Adobe Illustrator 24.2.1, SVG Export Plug-In . SVG Version: 6.00 Build 0)  -->
<svg version="1.1" id="Layer_1" xmlns="http://www.w3.org/2000/svg" xmlns:xlink="http://www.w3.org/1999/xlink" x="0px" y="0px"
	 viewBox="0 0 511.37 469.41" style="enable-background:new 0 0 511.37 469.41;" xml:space="preserve">
<style type="text/css">
	.st0{fill:url(#SVGID_1_);}
	.st1{fill:url(#SVGID_2_);}
	.st2{fill:#DCF2FF;}
	.st3{fill:#557987;}
	.st4{fill:#F7DBD7;}
	.st5{fill:#722B0C;}
	.st6{fill:#FFFFFF;}
	.st7{fill:#4A6670;}
	.st8{fill:#DD3636;}
	.st9{fill:url(#SVGID_3_);}
	.st10{fill:#8CD3FC;}
	.st11{fill:#43A9EB;}
	.st12{fill:url(#SVGID_4_);}
	.st13{fill:#88A8B7;}
	.st14{fill:#C4DCE8;}
	.st15{clip-path:url(#SVGID_6_);fill:#8CD3FC;}
	.st16{clip-path:url(#SVGID_6_);fill:#43A9EB;}
	.st17{clip-path:url(#SVGID_6_);fill:url(#SVGID_7_);}
	.st18{fill:url(#SVGID_8_);}
	.st19{fill:#B71A1A;}
	.st20{fill:url(#SVGID_9_);}
	.st21{fill:#D8CB95;}
	.st22{fill:url(#SVGID_10_);}
	.st23{fill:url(#SVGID_11_);}
	.st24{fill:#874545;}
	.st25{fill:#7F97A0;}
	.st26{clip-path:url(#SVGID_13_);fill:url(#SVGID_14_);}
	.st27{clip-path:url(#SVGID_13_);fill:#8CD3FC;}
	.st28{clip-path:url(#SVGID_13_);fill:#43A9EB;}
	.st29{fill:#F9A4C5;}
	.st30{fill:#FDD1E2;}
	.st31{fill:url(#SVGID_15_);}
	.st32{fill:url(#SVGID_16_);}
	.st33{fill:#703434;}
	.st34{fill:url(#SVGID_17_);}
	.st35{fill:#8EA6AD;}
	.st36{fill:url(#SVGID_18_);}
	.st37{fill:url(#SVGID_19_);}
	.st38{fill:url(#SVGID_20_);}
	.st39{clip-path:url(#SVGID_22_);}
	.st40{fill:url(#SVGID_23_);}
	.st41{fill:url(#SVGID_24_);}
	.st42{fill:url(#SVGID_25_);}
</style>
<g>
	<linearGradient id="SVGID_1_" gradientUnits="userSpaceOnUse" x1="213.5668" y1="375.9602" x2="181.6378" y2="431.7638">
		<stop  offset="0" style="stop-color:#6FE1CF"/>
		<stop  offset="0.4666" style="stop-color:#6FE1CF;stop-opacity:0.12"/>
		<stop  offset="0.5143" style="stop-color:#62E5D5;stop-opacity:0.0583"/>
		<stop  offset="0.8601" style="stop-color:#00FFFF;stop-opacity:0"/>
	</linearGradient>
	<path class="st0" d="M270.47,469.41l236.55-153.19c6.44-5.77,5.75-16.85-2.22-20.67L225.76,159.8L0,294.77"/>
	<linearGradient id="SVGID_2_" gradientUnits="userSpaceOnUse" x1="33.0114" y1="305.088" x2="504.9359" y2="305.088">
		<stop  offset="0" style="stop-color:#FFFFFF"/>
		<stop  offset="1" style="stop-color:#FFFFFF;stop-opacity:0.6782"/>
	</linearGradient>
	<path class="st1" d="M36.76,294.46L293.7,440.77c2.4,1.37,5.36,1.29,7.68-0.2l200.13-128.16c4.91-3.14,4.45-10.45-0.81-12.96
		l-273.09-130.3c-2.26-1.08-4.92-0.94-7.06,0.36L36.57,281.66C31.74,284.61,31.85,291.66,36.76,294.46z"/>
	<path class="st2" d="M419.13,106.23c2.46-1.57,4.19-4.11,5.09-7.43c0.93-3.43,2.27-8.02,5.21-13.13c3.43-5.95,8.36-8.44,12.02-7.2
		l-0.76,17.05c0,0-8.62,15.48-10.14,19.33c-1.51,3.85-4.99,4.76-5.4,5.66c-2.13,4.7-5.59,4.22-10.69-1.03
		C412.76,117.73,412.19,110.64,419.13,106.23z"/>
	<path class="st3" d="M425.26,224.59c0,0-2.24,2.47-5.24,5.43c-2.77,2.74-3.63,3.53-6.21,6.07c-1.5,1.49-0.27,2.85,2.6,2.74
		c2.52-0.1,8.22-1.34,11.42-2.5c2.27-0.82,6.42-3.15,8.55-4.51c2.12-1.36,2.54-3.25,2.54-3.25V224L425.26,224.59z"/>
	<path class="st3" d="M464.19,220.53c0,0-1.43,2.12-4.43,5.08c-2.77,2.74-3.59,3.82-6.05,7.09c-0.56,0.75-0.89,2.88,1.98,2.77
		c2.52-0.1,6.36-1.18,9.55-2.34c3.65-1.31,6.72-5.03,8.85-6.39c2.12-1.36,3.06-4.36,3.06-4.36l-1.47-4.5L464.19,220.53z"/>
	<path class="st2" d="M475.68,217.88c0,0-1.55-21.83-9.19-39.24c-0.05-1.03-2.02-10.37-2.1-11.41c-4.85,3.09-8.54,11.18-13.96,12
		c0.17,0.42,0.32,5.25,0.42,5.76c1.93,9.27,9.33,36.69,9.33,36.69s4.79,5.57,10.73,2.56C476.84,221.24,475.68,217.88,475.68,217.88z
		"/>
	<path class="st2" d="M424.42,167.23c-1.57,19.26-1.45,57.41-1.45,57.41s0.34,3.95,7.02,3.92c5.13-0.02,8.91-4.57,8.91-4.57
		l0.51-47.29C433.28,175.95,428.48,171.85,424.42,167.23z"/>
	<path class="st3" d="M429.41,119.08c0.22-5.18,1.49-21.65,1.8-23.64c0.97-6.28,1.85-10.6,3.97-12.53
		c6.04-5.5,20.13-2.36,20.13-2.36s11.72,6.06,12.33,10.66c0.48,3.64-8.73,21.85-5.88,34.96c3.72,17.14,6.37,36.13,7.45,47.07
		c-2.22,1.54-14.87,9.88-23.94,9.88c-15.78,0-21.28-9.5-23.12-12.11C422.14,158.17,428.7,135.61,429.41,119.08z"/>
	<path class="st4" d="M444.15,79.03l-1.46,8.6c0,0,0.16,2.18,1.48,4.17c2.28-1.28,5.07-1.18,7.08-2.93
		c4.23-3.68,4.84-5.37,4.84-5.37s-2.18-6.58-2.54-11.46C450.72,70.89,444.15,79.03,444.15,79.03z"/>
	<path class="st4" d="M450.13,58.87c-3.62-2.79-12.18-3.68-15.31,5.28c-3.28,9.4,5.12,21.13,9.59,19.14
		c2.51-1.12,7.77-5.08,9.26-10.03C455.34,67.68,452.93,61.03,450.13,58.87z"/>
	<path class="st5" d="M434.08,67.13c1.49,1.54,3.67,3.25,8.15,2.5c3.67-0.61,6.3-2.35,6.3-2.35l0.75,4.98c0,0,0.73-0.13,1.29-0.48
		c0.08-1.97,0.77-2.58,1.84-2c1.21,0.66,1.26,3.47,1.26,3.47s3.65-3.57,2.42-9.19c-0.77-3.5-5.43-10.41-11.94-9.8
		c-6.51,0.61-10.29,4.97-11.1,8.74C432.65,64.89,433.41,66.43,434.08,67.13z"/>
	<path class="st2" d="M441.06,82.77c0,0-1.83,1.78-3.12,4.59c1.05-0.14,2.35,0.18,3.12,1.81c0.86,1.81,3.12,2.63,3.12,2.63
		s-0.59-5.01,0-8.43C442.91,83.85,441.33,83.08,441.06,82.77z"/>
	<path class="st2" d="M455.43,79.79c0,0-4.2,4.48-6.9,7.04c-1.87,1.77-4.35,4.97-4.35,4.97s2.98,0.15,3.89,0
		c1.84-0.3,2.81,1.47,2.81,1.47s6.49-7.31,6.47-10.85C457.33,80.54,455.43,79.79,455.43,79.79z"/>
	<path class="st2" d="M455.55,70.44c0.24,0.81-1.88,2.81-1.88,2.81s-9.61-0.73-13.48-1.56c-3.86-0.83-6.72-3.22-6.72-3.22
		S454.61,67.19,455.55,70.44z"/>
	<path class="st6" d="M455.34,70.77c0,0,2.8-0.75,3.35-5.78c0.55-5.03-0.83-9.22-6.76-12.44c-5.94-3.21-10.31-2.8-13.99,0.28
		c-3.68,3.07-7.96,6.01-8.1,9.64c-0.14,3.63,4.24,6.43,4.24,6.43s2.97,1.51,8.34,1.87C447.78,71.14,455.34,70.77,455.34,70.77z"/>
	<path class="st2" d="M455.93,63.17c0,0,1.03,2.83-0.36,5.05c-1.39,2.22-3.23,3.72-3.23,3.72l-1.77-0.16c0,0,3.42-2.64,4.07-4.32
		C455.28,65.78,455.93,63.17,455.93,63.17z"/>
	<path class="st2" d="M449.85,63.74c0,0,1.53,2.42,0.72,3.81c-0.81,1.4-1.73,4.38-1.73,4.38h-1.01c0,0-0.09-2.6,0.78-4.1
		C449.49,66.34,449.85,63.74,449.85,63.74z"/>
	<path class="st2" d="M440.84,65.83c0,0,1.47,0.98,2.25,2.47c0.78,1.49,1.08,3.31,1.08,3.31h-0.95c0,0-0.01-1.44-0.81-2.89
		C441.62,67.27,440.84,65.83,440.84,65.83z"/>
	<path class="st2" d="M443.37,94.19c0,0-1.86,10.43-2.31,14.09c-0.45,3.66,0.45,19.69,0,26.56c-0.45,6.87-1.34,20.75-1.72,26.88
		c-0.38,6.13,0.72,17.77,0.72,17.77s-2.3-3.72-2.12-9.01c0.18-5.29,0.68-16.35,1.4-23.4c0.72-7.05,0.38-21.72,0-27.87
		c-0.38-6.15,0.65-15.79,1.72-19.43C442.13,96.15,443.37,94.19,443.37,94.19z"/>
	<path class="st2" d="M449.15,134.49c-0.58-2.69-1.32-5.18,2.03-8.23c1.29-1.18,5.29-1.68,7.62-3.13c1.06-0.66,2.74-0.79,4.57-1.67
		c-1.69-2.97-2.6-13.32-3.44-17.12c-1.6-7.2-0.89-17.07,3.77-18.04c9.25-1.92,13.17,18.08,13.92,27.81c0.14,1.78-0.8,7.02-0.97,11.3
		c-0.13,3.35-1.08,4.45-1.87,5.27c-1.67,1.73-5.69,6.16-9.94,6.16c-2.62,0-6.8,1-8.46,1.42
		C451.76,139.44,449.39,135.59,449.15,134.49z"/>
	<path class="st6" d="M454.22,76.49c0,0-6.68,8.98-11.5,7.84c-4.82-1.15-6.8-7.84-6.8-7.84s3.84-1.11,6.8,0
		c2.96,1.11,3.03,1.44,5.1,0.78s5.84-4.02,5.84-4.02L454.22,76.49z"/>
	<path class="st2" d="M437.86,56.94c2.89-1.29,7.39-0.53,11.87,0c4.47,0.53,2.01,3.03-2.16,3.69c-4.17,0.66-7,5.19-11.98,3.52
		C430.61,62.47,434.77,58.32,437.86,56.94z"/>
	<path class="st7" d="M440.82,132.43l-11.94-20.93c-0.71-1.25-2.31-2.72-3.54-3.26l-11.06-6.48c-0.52-0.23-0.89-0.25-1.1-0.11
		l-0.01-0.01l-1.12,0.66l0.94,0.86l0.27-0.27c0.03,0.05,0.04,0.1,0.08,0.15l11.94,20.93c0.71,1.25,2.31,2.72,3.54,3.26l10.44,6.12
		l0.55,1.17l1.18-0.69l-0.01-0.01C441.25,133.63,441.23,133.15,440.82,132.43z"/>
	<path class="st3" d="M413.49,103.01l11.06,6.48c1.24,0.54,2.83,2.01,3.54,3.26l11.94,20.93c0.71,1.25,0.29,1.83-0.95,1.29
		l-11.06-6.48c-1.24-0.54-2.83-2.01-3.54-3.26l-11.94-20.93C411.83,103.05,412.25,102.47,413.49,103.01z"/>
	<path class="st4" d="M442.58,127.57c-3.59-2.35-4.16-1.98-5.75-2.35c0.05,0.27,1.52,2.67,1.52,2.67s-6.43-2.22-9.01-1.46
		c-2.17,0.64-1.42,3.71,3.64,6.96c1.42,0.91,4.83,1.97,9.88,2.17c2.25,0.09,8.32-0.6,8.32-0.6s2.59-2.21,0-5.48
		C448.65,129.21,444.42,128.77,442.58,127.57z"/>
	<path class="st4" d="M416.5,111.49c-1.36,0.67-0.14,6.62,2.6,8.47c2.3,1.56,5.12-0.38,3.38-3.69
		C420.74,112.97,416.5,111.49,416.5,111.49z"/>
	<polygon class="st8" points="254.25,164.68 245.79,169.54 259.81,177.74 268.27,172.84 	"/>
	<linearGradient id="SVGID_3_" gradientUnits="userSpaceOnUse" x1="266.042" y1="4.886" x2="266.042" y2="193.2681">
		<stop  offset="0" style="stop-color:#0C89C9"/>
		<stop  offset="0.28" style="stop-color:#1089CA"/>
		<stop  offset="0.999" style="stop-color:#159DD8"/>
	</linearGradient>
	<polygon class="st9" points="259.82,185.99 272.27,193.27 272.27,12.16 259.82,4.89 	"/>
	<polygon class="st10" points="268.3,0 259.82,4.89 272.27,12.16 280.72,7.28 	"/>
	<polygon class="st11" points="280.72,7.28 272.27,12.16 272.27,195.4 280.72,191.13 	"/>
	<linearGradient id="SVGID_4_" gradientUnits="userSpaceOnUse" x1="245.7935" y1="189.6301" x2="286.2858" y2="189.6301">
		<stop  offset="0" style="stop-color:#0C89C9"/>
		<stop  offset="0.28" style="stop-color:#1089CA"/>
		<stop  offset="0.999" style="stop-color:#159DD8"/>
	</linearGradient>
	<polygon class="st12" points="286.29,209.72 245.79,186.07 245.79,169.54 286.29,193.19 	"/>
	<polygon class="st10" points="280.72,180.14 272.27,185 286.29,193.19 294.74,188.3 	"/>
	<polygon class="st11" points="294.74,188.3 286.29,193.19 286.29,209.72 294.74,204.74 	"/>
	<g>
		<path class="st13" d="M247.48,176.02c0.34-0.16,0.76-0.14,1.22,0.13c1.1,0.64,1.98,2.36,1.98,3.84c0,0.8-0.27,1.36-0.68,1.61
			l-8.73,4.99l-2.4-5.66L247.48,176.02z"/>
		<g>
			<path class="st13" d="M237.89,176.18c0.86-0.43,1.97-0.35,3.16,0.34c2.78,1.62,5.03,5.98,5.03,9.73c0,2.02-0.65,3.45-1.69,4.09
				L81.02,285.48l-6.48-14.16L237.89,176.18z"/>
			<path class="st13" d="M72.74,275.47c0,3.75,2.25,8.11,5.03,9.73c2.78,1.62,5.03-0.1,5.03-3.85c0-3.75-2.25-8.11-5.03-9.73
				C74.99,269.99,72.74,271.72,72.74,275.47z"/>
		</g>
		<path class="st13" d="M76.09,276.26c0.34-0.16,0.76-0.14,1.22,0.13c1.1,0.64,1.98,2.36,1.98,3.84c0,0.8-0.27,1.36-0.68,1.61
			l-8.73,4.99l-2.4-5.66L76.09,276.26z"/>
	</g>
	<polygon class="st14" points="101.52,110.07 104.95,268.16 102.87,272.75 133.35,255 125.21,99.45 	"/>
	<path class="st3" d="M264.43,13.82c0.34-0.16,0.76-0.14,1.22,0.13c1.1,0.64,1.98,2.36,1.98,3.84c0,0.8-0.27,1.36-0.68,1.61
		l-8.73,4.99l-2.4-5.66L264.43,13.82z"/>
	<path class="st13" d="M254.84,13.98c0.86-0.43,1.97-0.35,3.16,0.34c2.78,1.62,5.03,5.98,5.03,9.73c0,2.02-0.65,3.45-1.69,4.09
		L97.97,123.28l-6.48-14.16L254.84,13.98z"/>
	<path class="st3" d="M89.7,113.27c0,3.75,2.25,8.11,5.03,9.73c2.78,1.62,5.03-0.1,5.03-3.85c0-3.75-2.25-8.11-5.03-9.73
		C91.95,107.79,89.7,109.51,89.7,113.27z"/>
	<path class="st7" d="M92.68,113.47c0.34-0.16,0.76-0.14,1.22,0.13c1.1,0.64,1.98,2.36,1.98,3.84c0,0.8-0.27,1.36-0.68,1.61
		l-8.73,4.99l-2.4-5.66L92.68,113.47z"/>
	<path class="st3" d="M278.33,194c0.34-0.16,0.76-0.14,1.22,0.13c1.1,0.64,1.98,2.36,1.98,3.84c0,0.8-0.27,1.36-0.68,1.61
		l-8.73,4.99l-2.4-5.66L278.33,194z"/>
	<path class="st13" d="M268.75,194.16c0.86-0.43,1.97-0.35,3.16,0.34c2.78,1.62,5.03,5.98,5.03,9.73c0,2.02-0.65,3.45-1.69,4.09
		l-163.37,95.13l-6.48-14.16L268.75,194.16z"/>
	<path class="st3" d="M103.6,293.44c0,3.75,2.25,8.11,5.03,9.73c2.78,1.62,5.03-0.1,5.03-3.85c0-3.75-2.25-8.11-5.03-9.73
		C105.85,287.97,103.6,289.69,103.6,293.44z"/>
	<path class="st7" d="M106.58,293.64c0.34-0.16,0.76-0.14,1.22,0.13c1.1,0.64,1.98,2.36,1.98,3.84c0,0.8-0.27,1.36-0.68,1.61
		l-8.73,4.99l-2.4-5.66L106.58,293.64z"/>
	<g>
		<defs>
			<path id="SVGID_5_" d="M92.9,288.61V118.95c0-0.99-0.52-1.9-1.37-2.4l-9.65-5.66c-0.86-0.51-1.93-0.51-2.8-0.01l-5.69,3.28
				c-0.86,0.5-1.39,1.42-1.39,2.41v156.59c0,2.15-2.33,3.48-4.18,2.4h0c-0.86-0.5-1.92-0.5-2.79-0.01l-7.06,4.06l0,0v14.93
				c0,0.99,0.52,1.9,1.38,2.4l37.71,22.03c0.87,0.51,1.95,0.51,2.81,0l5.68-3.34c0.85-0.5,1.37-1.41,1.37-2.4v-13.26
				c0-0.99-0.53-1.91-1.38-2.4l-11.26-6.55C93.43,290.52,92.9,289.6,92.9,288.61z M72,287.8L72,287.8L72,287.8L72,287.8z"/>
		</defs>
		<clipPath id="SVGID_6_">
			<use xlink:href="#SVGID_5_"  style="overflow:visible;"/>
		</clipPath>
		<polygon class="st15" points="66.43,274.75 57.97,279.61 71.99,287.81 80.45,282.91 		"/>
		<polygon class="st15" points="80.48,110.07 72,114.96 84.44,122.23 92.9,117.35 		"/>
		<polygon class="st16" points="92.9,117.35 84.44,122.23 84.44,305.47 92.9,301.2 		"/>
		<linearGradient id="SVGID_7_" gradientUnits="userSpaceOnUse" x1="78.2198" y1="114.9553" x2="78.2198" y2="319.7893">
			<stop  offset="0" style="stop-color:#0C89C9"/>
			<stop  offset="0.28" style="stop-color:#1089CA"/>
			<stop  offset="0.999" style="stop-color:#159DD8"/>
		</linearGradient>
		<polygon class="st17" points="84.44,295.07 84.44,122.23 72,114.96 72,287.8 57.97,279.61 57.97,296.13 98.47,319.79 
			98.47,303.26 		"/>
		<polygon class="st15" points="92.9,290.21 84.44,295.07 98.47,303.26 106.92,298.37 		"/>
		<polygon class="st16" points="106.92,298.37 98.47,303.26 98.47,319.79 106.92,314.81 		"/>
	</g>
	<linearGradient id="SVGID_8_" gradientUnits="userSpaceOnUse" x1="182.5356" y1="19.2345" x2="182.5356" y2="281.1765">
		<stop  offset="0.85" style="stop-color:#F5FFFF"/>
		<stop  offset="1" style="stop-color:#DCF2FF"/>
	</linearGradient>
	<path class="st18" d="M253.54,28.76l-0.03-0.03c-0.3-3.54-2.4-7.39-4.97-8.9c-1.18-0.69-2.25-0.74-3.11-0.33l-0.02-0.03
		l-142.55,83.02l8.17,9.62l8.18,169.06l142.99-83.21L253.54,28.76z"/>
	<path class="st13" d="M94.9,262.57c0,3.75,2.25,8.11,5.03,9.73c2.78,1.62,5.03-0.1,5.03-3.85c0-3.75-2.25-8.11-5.03-9.73
		C97.15,257.1,94.9,258.82,94.9,262.57z"/>
	<polygon class="st14" points="119.22,299.35 262.21,216.14 326.01,123.94 183.02,207.15 	"/>
	<g>
		<polygon class="st19" points="403.05,190.98 377.15,175.84 377.15,98.09 358.92,87.44 358.92,232.4 403.65,258.55 412.11,209.88 
					"/>
	</g>
	<g>
		<linearGradient id="SVGID_9_" gradientUnits="userSpaceOnUse" x1="368.8319" y1="97.5879" x2="368.8319" y2="268.701">
			<stop  offset="0" style="stop-color:#0C89C9"/>
			<stop  offset="0.28" style="stop-color:#1089CA"/>
			<stop  offset="0.999" style="stop-color:#159DD8"/>
		</linearGradient>
		<polygon class="st20" points="386.36,201.13 360.46,185.99 360.46,108.24 342.24,97.59 342.24,242.55 386.97,268.7 395.43,220.03 
					"/>
	</g>
	<polygon class="st10" points="358.92,87.44 342.24,97.59 360.46,108.24 377.15,98.09 	"/>
	<polygon class="st10" points="377.15,175.84 360.46,185.99 386.36,201.13 403.05,190.98 	"/>
	<polygon class="st11" points="377.15,98.09 360.46,108.24 360.46,185.99 377.15,175.84 	"/>
	<polygon class="st11" points="412.11,209.88 395.43,220.03 386.97,268.7 403.65,258.55 	"/>
	<polygon class="st11" points="386.36,201.13 395.43,220.03 412.11,209.88 403.05,190.98 	"/>
	<path class="st13" d="M346.16,105.32c0.89-0.44,2.03-0.36,3.26,0.35c2.87,1.68,5.19,6.18,5.19,10.05c0,2.09-0.68,3.56-1.75,4.22
		l-168.68,98.23l-6.69-14.62L346.16,105.32z"/>
	<path class="st21" d="M175.64,207.84c0,3.87,2.33,8.37,5.19,10.05c2.87,1.68,5.19-0.1,5.19-3.98c0-3.87-2.33-8.37-5.19-10.05
		C177.97,202.18,175.64,203.96,175.64,207.84z"/>
	<path class="st3" d="M376.26,211.55c0,5.57,3.35,12.05,7.48,14.46c4.13,2.41,7.48-0.15,7.48-5.72c0-5.57-3.35-12.05-7.48-14.46
		C379.61,203.41,376.26,205.97,376.26,211.55z"/>
	<g>
		<path class="st7" d="M388.02,178.46l-26.14-15.28l-1.74,0.98l1.74,6.26l26.14,15.28c1.48,0.86,2.68-0.06,2.68-2.05
			C390.71,181.66,389.5,179.33,388.02,178.46z"/>
		<polygon class="st7" points="388.12,186.78 389.86,185.79 389.54,184.28 387.63,185.02 		"/>
		<path class="st3" d="M386.65,180.04l-26.14-15.28V172l26.14,15.28c1.48,0.86,2.68-0.06,2.68-2.05
			C389.34,183.24,388.13,180.9,386.65,180.04z"/>
	</g>
	<path class="st7" d="M381.72,212.44c0.34-0.16,0.76-0.14,1.22,0.13c1.1,0.64,1.98,2.36,1.98,3.84c0,0.8-0.27,1.36-0.68,1.61
		l-8.73,4.99l-2.4-5.66L381.72,212.44z"/>
	<path class="st7" d="M372.29,219.03c0,1.48,0.89,3.2,1.98,3.84c1.1,0.64,1.98-0.04,1.98-1.52c0-1.48-0.89-3.2-1.98-3.84
		C373.18,216.87,372.29,217.55,372.29,219.03z"/>
	<path class="st7" d="M373.12,219.58c0,0.84,0.5,1.81,1.12,2.17c0.62,0.36,1.12-0.02,1.12-0.86c0-0.84-0.5-1.81-1.12-2.17
		C373.62,218.36,373.12,218.75,373.12,219.58z"/>
	<linearGradient id="SVGID_10_" gradientUnits="userSpaceOnUse" x1="218.6912" y1="301.8117" x2="388.1585" y2="228.4772">
		<stop  offset="0.85" style="stop-color:#F5FFFF"/>
		<stop  offset="1" style="stop-color:#DCF2FF"/>
	</linearGradient>
	<path class="st22" d="M356.53,204.15l-91.96,53.82L356.53,204.15c2.64-1.32,6.05-1.09,9.69,1.05c8.53,5.02,15.45,18.49,15.45,30.09
		c0,6.24-2.01,10.67-5.56,12.05l-141.29,85.51l-21.23-45.07C213.61,287.78,356.26,204.29,356.53,204.15z"/>
	
		<linearGradient id="SVGID_11_" gradientUnits="userSpaceOnUse" x1="208.2034" y1="309.2368" x2="239.1091" y2="309.2368" gradientTransform="matrix(1.0128 0.0222 0.0222 1.0384 -9.231 -15.9885)">
		<stop  offset="0" style="stop-color:#C4DCE8"/>
		<stop  offset="1" style="stop-color:#DCF2FF"/>
	</linearGradient>
	<path class="st23" d="M208.3,300.36c0.26,11.96,7.56,26.02,16.31,31.39c8.75,5.37,15.64,0.02,15.39-11.94
		c-0.26-11.96-7.56-26.02-16.31-31.39C214.93,283.05,208.04,288.4,208.3,300.36z"/>
	<path class="st14" d="M212.88,304.79c0,8.47,5.08,18.3,11.35,21.97c6.27,3.67,11.35-0.23,11.35-8.69s-5.08-18.3-11.35-21.97
		C217.96,292.44,212.88,296.33,212.88,304.79z"/>
	<path class="st3" d="M216.26,307.45c0,5.57,3.35,12.05,7.48,14.46c4.13,2.41,7.48-0.15,7.48-5.72c0-5.57-3.35-12.05-7.48-14.46
		C219.6,299.31,216.26,301.88,216.26,307.45z"/>
	<path class="st7" d="M221.6,309.11c0.34-0.16,0.76-0.14,1.22,0.13c1.1,0.64,1.98,2.36,1.98,3.84c0,0.8-0.27,1.36-0.68,1.61
		l-8.73,4.99L213,314L221.6,309.11z"/>
	<path class="st7" d="M210.29,313.81c0,1.48,0.89,3.2,1.98,3.84c1.1,0.64,1.98-0.04,1.98-1.52c0-1.48-0.89-3.2-1.98-3.84
		C211.17,311.65,210.29,312.33,210.29,313.81z"/>
	<path class="st7" d="M211.11,314.36c0,0.84,0.5,1.81,1.12,2.17c0.62,0.36,1.12-0.02,1.12-0.86c0-0.84-0.5-1.81-1.12-2.17
		C211.62,313.14,211.11,313.53,211.11,314.36z"/>
	<g>
		<path class="st24" d="M347.11,171.12c0.34-0.16,0.76-0.14,1.22,0.13c1.1,0.64,1.98,2.36,1.98,3.84c0,0.8-0.27,1.36-0.68,1.61
			l-8.73,4.99l-2.4-5.66L347.11,171.12z"/>
		<path class="st7" d="M337.32,177.11c0,1.48,0.89,3.2,1.98,3.84c1.1,0.64,1.98-0.04,1.98-1.52c0-1.48-0.89-3.2-1.98-3.84
			C338.21,174.95,337.32,175.63,337.32,177.11z"/>
		<path class="st7" d="M338.15,177.67c0,0.84,0.5,1.81,1.12,2.17c0.62,0.36,1.12-0.02,1.12-0.86c0-0.84-0.5-1.81-1.12-2.17
			C338.65,176.45,338.15,176.83,338.15,177.67z"/>
	</g>
	<path class="st2" d="M321.56,162.24l-91.96,53.48L321.56,162.24c2.64-1.31,6.05-1.09,9.69,1.05c8.53,4.99,15.45,18.37,15.45,29.9
		c0,6.21-2.01,10.6-5.19,12.56l-142.98,83.09l-19.89-43.5C178.64,245.33,321.29,162.37,321.56,162.24z"/>
	<path class="st14" d="M173.12,258.08c0,11.52,6.92,24.91,15.45,29.9c8.53,4.99,15.45-0.31,15.45-11.83
		c0-11.52-6.92-24.91-15.45-29.9C180.04,241.27,173.12,246.56,173.12,258.08z"/>
	
		<ellipse transform="matrix(0.9235 -0.3836 0.3836 0.9235 -88.523 92.1998)" class="st3" cx="186.88" cy="268.02" rx="6.51" ry="11.6"/>
	<g>
		<path class="st24" d="M185.11,265.9c0.34-0.16,0.76-0.14,1.22,0.13c1.1,0.64,1.98,2.36,1.98,3.84c0,0.8-0.27,1.36-0.68,1.61
			l-8.73,4.99l-2.4-5.66L185.11,265.9z"/>
		<path class="st7" d="M175.32,271.89c0,1.48,0.89,3.2,1.98,3.84c1.1,0.64,1.98-0.04,1.98-1.52c0-1.48-0.89-3.2-1.98-3.84
			C176.21,269.73,175.32,270.41,175.32,271.89z"/>
		<path class="st7" d="M176.15,272.45c0,0.84,0.5,1.81,1.12,2.17c0.62,0.36,1.12-0.02,1.12-0.86c0-0.84-0.5-1.81-1.12-2.17
			C176.65,271.23,176.15,271.61,176.15,272.45z"/>
	</g>
	<path class="st25" d="M370.38,176.46c0.89-0.44,2.03-0.36,3.26,0.35c2.87,1.68,5.19,6.18,5.19,10.05c0,2.09-0.68,3.56-1.75,4.22
		L208.41,289.3l-6.69-14.62L370.38,176.46z"/>
	<path class="st7" d="M199.51,278.37c0,3.87,2.33,8.37,5.19,10.05c2.87,1.68,5.19-0.1,5.19-3.98c0-3.87-2.33-8.37-5.19-10.05
		C201.83,272.72,199.51,274.5,199.51,278.37z"/>
	<polygon class="st6" points="190.2,288.13 177.65,295.77 198.62,307.78 211.17,300.14 	"/>
	<g>
		<defs>
			<path id="SVGID_12_" d="M214.67,300.17l-23-13.45c-1.17-0.68-1.89-1.94-1.89-3.29v-73.37c0-1.36-0.72-2.61-1.89-3.29l-14.37-8.4
				c-1.21-0.71-2.71-0.69-3.91,0.03l-12.91,7.85c-1.14,0.69-1.83,1.93-1.83,3.26v140.63c0,1.36,0.72,2.61,1.89,3.29l40.88,23.9
				c1.21,0.71,2.71,0.69,3.91-0.03l13.26-8.07c0.94-0.57,1.59-1.52,1.78-2.61l7.95-45.77c0.14-0.78,0.02-1.59-0.32-2.3l-8.03-16.74
				C215.85,301.13,215.32,300.56,214.67,300.17z"/>
		</defs>
		<clipPath id="SVGID_13_">
			<use xlink:href="#SVGID_12_"  style="overflow:visible;"/>
		</clipPath>
		<linearGradient id="SVGID_14_" gradientUnits="userSpaceOnUse" x1="181.4881" y1="207.3703" x2="181.4881" y2="378.4836">
			<stop  offset="0" style="stop-color:#0C89C9"/>
			<stop  offset="0.28" style="stop-color:#1089CA"/>
			<stop  offset="0.999" style="stop-color:#159DD8"/>
		</linearGradient>
		<polygon class="st26" points="199.02,310.91 173.12,295.77 173.12,218.02 154.89,207.37 154.89,352.33 199.62,378.48 
			208.08,329.81 		"/>
		<polygon class="st27" points="171.58,197.22 154.89,207.37 173.12,218.02 189.8,207.88 		"/>
		<polygon class="st27" points="189.8,285.62 173.12,295.77 199.02,310.91 215.7,300.76 		"/>
		<polygon class="st28" points="189.8,207.88 173.12,218.02 173.12,295.77 189.8,285.62 		"/>
		<polygon class="st28" points="224.77,319.66 208.08,329.81 199.62,378.48 216.31,368.34 		"/>
		<polygon class="st28" points="199.02,310.91 208.08,329.81 224.77,319.66 215.7,300.76 		"/>
	</g>
	<polygon class="st7" points="194.93,291.33 190.25,294.07 189.25,293.48 193.93,290.75 	"/>
	<polygon class="st7" points="203.29,296.27 198.61,299.01 197.62,298.43 202.29,295.69 	"/>
	<path class="st7" d="M190.63,296.08c0,1.15-1.64,2.09-3.66,2.09c-2.02,0-3.66-0.93-3.66-2.09c0-1.15,1.64-2.09,3.66-2.09
		C188.99,293.99,190.63,294.93,190.63,296.08z"/>
	<path class="st29" d="M184.41,294.59v1.73c0,0.92,1.3,1.66,2.91,1.66c1.61,0,2.91-0.74,2.91-1.66v-1.73H184.41z"/>
	<ellipse class="st30" cx="187.33" cy="294.66" rx="2.91" ry="1.66"/>
	<path class="st7" d="M198.99,301.02c0,1.15-1.64,2.09-3.66,2.09c-2.02,0-3.66-0.93-3.66-2.09s1.64-2.09,3.66-2.09
		C197.35,298.94,198.99,299.87,198.99,301.02z"/>
	<path class="st29" d="M192.78,299.53v1.73c0,0.92,1.3,1.66,2.91,1.66c1.61,0,2.91-0.74,2.91-1.66v-1.73H192.78z"/>
	<ellipse class="st30" cx="195.69" cy="299.6" rx="2.91" ry="1.66"/>
	<polygon class="st7" points="215.73,287.5 217.47,286.51 217.15,285 215.24,285.74 	"/>
	<path class="st3" d="M201.89,280.77c0,2.36,1.42,5.11,3.17,6.13c1.75,1.02,3.17-0.06,3.17-2.43s-1.42-5.11-3.17-6.13
		C203.31,277.32,201.89,278.4,201.89,280.77z"/>
	<linearGradient id="SVGID_15_" gradientUnits="userSpaceOnUse" x1="188.0239" y1="192.5553" x2="364.5581" y2="192.5553">
		<stop  offset="0.85" style="stop-color:#F5FFFF"/>
		<stop  offset="1" style="stop-color:#DCF2FF"/>
	</linearGradient>
	<polygon class="st31" points="330.57,114.4 338.08,119.71 364.56,187.61 221.54,270.71 195.25,203.34 188.02,197.42 	"/>
	<path class="st13" d="M191.41,208.09c1.08,1.24,2.22,2.52,3.27,3.87c0.93-0.72,1.51-2.13,1.51-4.06c0-3.87-2.33-8.37-5.19-10.05
		c-2.84-1.66-5.14,0.08-5.19,3.87C187.69,203.83,189.56,205.95,191.41,208.09z"/>
	<linearGradient id="SVGID_16_" gradientUnits="userSpaceOnUse" x1="162.7232" y1="121.619" x2="374.0178" y2="121.619">
		<stop  offset="0.85" style="stop-color:#F5FFFF"/>
		<stop  offset="1" style="stop-color:#DCF2FF"/>
	</linearGradient>
	<path class="st32" d="M328.8,118.58c0,3.87,2.33,8.37,5.19,10.05c2.87,1.68,5.19-0.1,5.19-3.98c0-3.87-2.33-8.37-5.19-10.05
		C331.13,112.93,328.8,114.71,328.8,118.58z"/>
	<polygon class="st10" points="472.36,289.84 434.1,272.81 254.76,377.92 295.25,401.58 	"/>
	<path class="st7" d="M455.38,252.08c0.38-0.18,0.85-0.16,1.36,0.14c1.22,0.71,2.21,2.62,2.21,4.27c0,0.89-0.3,1.51-0.76,1.79
		l-9.71,5.55l-2.67-6.3L455.38,252.08z"/>
	<path class="st7" d="M444.9,259.41c0,1.64,0.99,3.56,2.21,4.27c1.22,0.71,2.21-0.04,2.21-1.69c0-1.64-0.99-3.56-2.21-4.27
		C445.89,257.01,444.9,257.76,444.9,259.41z"/>
	<path class="st7" d="M445.82,260.03c0,0.93,0.56,2.01,1.25,2.41c0.69,0.4,1.25-0.02,1.25-0.96c0-0.93-0.56-2.01-1.25-2.41
		C446.38,258.67,445.82,259.1,445.82,260.03z"/>
	<g>
		<path class="st24" d="M275.57,358.09c0.38-0.18,0.85-0.16,1.36,0.14c1.22,0.71,2.21,2.62,2.21,4.27c0,0.89-0.3,1.51-0.76,1.79
			l-9.71,5.55l-2.67-6.3L275.57,358.09z"/>
		<path class="st7" d="M264.72,364.82c0,1.64,0.99,3.55,2.21,4.27c1.22,0.71,2.21-0.04,2.21-1.69c0-1.64-0.99-3.56-2.21-4.27
			C265.71,362.42,264.72,363.18,264.72,364.82z"/>
		<path class="st7" d="M265.64,365.44c0,0.93,0.56,2.01,1.25,2.41c0.69,0.4,1.25-0.02,1.25-0.95c0-0.93-0.56-2.01-1.25-2.41
			C266.2,364.09,265.64,364.51,265.64,365.44z"/>
	</g>
	<path class="st7" d="M139.59,289.2l16.49,9.47l8.91-28.27c0.22-0.71-0.08-1.47-0.72-1.84l-15.39-8.83L139.59,289.2z"/>
	<path class="st7" d="M139.65,289.28l14.76,8.47c0.54,0.31,1.23,0.04,1.42-0.55l8.68-27.57c0.14-0.44-0.05-0.91-0.45-1.14
		l-14.76-8.47c-0.54-0.31-1.23-0.04-1.42,0.55l-8.68,27.57C139.07,288.58,139.26,289.05,139.65,289.28z"/>
	<path class="st6" d="M141.93,287.09l12.31,7.06c0.54,0.31,1.23,0.04,1.42-0.55l7.31-23.19c0.14-0.44-0.05-0.91-0.45-1.14
		l-12.31-7.06c-0.54-0.31-1.23-0.04-1.42,0.55l-7.31,23.19C141.35,286.38,141.53,286.86,141.93,287.09z"/>
	<path class="st4" d="M144.05,274.63c-0.24,0.77-1.03,3.26-1.03,3.26s1.69,0.94,2.36,1.51c0.67,0.57,0.1,1.15-0.72,1.15
		c-0.82,0-2.37,0.21-3.04,0c-0.67-0.21-1.43-0.45-1.43-0.45l-1.98-3.45C138.22,276.64,141.43,274.13,144.05,274.63z"/>
	<path class="st4" d="M159.71,288.27c0,0-1.44-0.68-3.09-0.82c-0.95-0.08-1.1,0.35-0.86,0.82c0.18,0.35,0.57,0.71,1.01,0.9
		c0.37,0.16,1.15,1.26,2.03,2.35c0.96,1.18,1.11,2.5,1.11,2.5s-0.93,4.12,1.03,2.28c2.37-2.22,4.07-6.85,2.93-9.06
		c-1.13-2.21-2.58-3.4-2.58-3.4L159.71,288.27z"/>
	<path class="st2" d="M117.81,263.23c0,0-5.27-1.69-8.12,3.46c-2.85,5.14-0.68,13.07,1.17,15.75c1.85,2.68,9.36-5.43,9.36-5.43
		L117.81,263.23z"/>
	<g>
		<path class="st4" d="M124.05,404.87c2.83-1.43,5.53-3.19,4.66-4.83c-0.39-0.74-1.29-1.07-2.16-1.21
			c-2.61,0.87-4.34,0.72-4.34,0.72s1.67-27.04,1.82-34.77c0.04-2.13-9.46-3.66-9.46-3.66c-0.12,0.51-1.44,5.37-1.41,10.23
			c0.07,8.98,1.59,22.38,2.02,27.48c0.22,2.64-0.62,4.15-0.81,5.43c0.68,0.3,2.07,0.91,3.1,1.39
			C118.9,406.3,121.21,406.3,124.05,404.87z"/>
		<path class="st3" d="M114.26,408.44c0.95,2.28,3.13,2.07,7.55,0.46c3.92-1.43,7.15-3.04,9.94-5.13c2.79-2.09,2.81-2.36,3.18-3.78
			c0.51-1.98-2.33-3.08-7.07-1.59c-0.47,0.15-0.9,0.29-1.3,0.42c0.87,0.15,1.77,0.47,2.16,1.21c0.86,1.64-1.83,3.39-4.66,4.83
			c-2.83,1.43-5.15,1.43-6.57,0.78c-1.04-0.48-2.43-1.09-3.1-1.39C114.09,406.18,113.69,407.07,114.26,408.44z"/>
	</g>
	<g>
		<path class="st4" d="M137.83,412.97c2.83-1.43,5.53-3.19,4.66-4.83c-0.39-0.74-1.29-1.07-2.16-1.21
			c-2.61,0.87-3.96,0.99-3.96,0.99s-0.93-11.02-0.55-22.24c0.32-9.46,1.93-20.16,2.44-23.07c0.37-2.1-9.82-2.19-9.82-2.19
			c-0.11,0.45-3.38,8.5-3.43,13.16c-0.11,10.56,3.4,27.9,3.86,33.35c0.22,2.64-0.53,4.16-0.72,5.43c0.67,0.3,2.07,0.91,3.1,1.39
			C132.68,414.4,135,414.4,137.83,412.97z"/>
		<path class="st3" d="M128.04,416.54c0.95,2.28,3.13,2.07,7.55,0.46c3.92-1.43,7.15-3.04,9.94-5.13c2.79-2.09,2.81-2.36,3.18-3.78
			c0.52-1.98-2.33-3.08-7.07-1.59c-0.47,0.15-0.9,0.29-1.3,0.42c0.87,0.15,1.77,0.47,2.16,1.21c0.86,1.64-1.83,3.39-4.66,4.83
			s-5.15,1.43-6.57,0.78c-1.04-0.48-2.43-1.09-3.1-1.39C127.87,414.28,127.47,415.17,128.04,416.54z"/>
	</g>
	<path class="st4" d="M127.46,238.16c1.17,0.82,5.54,1.84,6.76,11.59c1.08,8.64-0.8,10.89-2.53,11.62c-0.96,0.4-4.36,0.39-4.36,0.39
		l0.13,7.3c0,0-4.22,1.69-8.28,0c-4.05-1.69-4.05-1.69-4.05-1.69s1.58-2.76,1.32-7.55c-0.33-5.93-2.4-14.38-0.93-17.52
		C118.17,236.63,124.29,235.93,127.46,238.16z"/>
	<path class="st3" d="M109.01,278.57c1.78-14.27,5.62-14.97,5.62-14.97s10.8,2.82,13.75,3.83c2.78,0.95,5.27,2.4,8.17,8.3
		c2.91,5.91-0.79,14.49-0.79,14.49s-0.64,7.33,0.52,16.21c0.85,6.5,1.54,7.07,4.09,17.32c1.34,5.4,6.26,25.33,6.88,40.9
		c0,0-3.86,5.95-16.8,6.83c-8.87,0.6-23.93-8.67-23.93-8.67s-2.02-38.82,3.37-52.39C113.61,301.07,108.13,285.63,109.01,278.57z"/>
	<path class="st33" d="M127.9,252.37c-2.39,2.53-4.73,3.33-5.44,5.61c-8.38,0.1-12-4.59-13.84-13.06c3.08-5.13,7.2-8.96,11.47-9.87
		c10.31-2.21,14.29,2.51,13.66,9.38C133.44,247.79,130.31,249.82,127.9,252.37z"/>
	<path class="st4" d="M132.72,272.61c4.57,0.44,13.35,20.92,13.35,20.92s0.38,0.09,1.05,0.21c0.47,2.82,0.55,5.65,0.18,8.45
		c-1.8-0.03-3.36-0.29-4.43-0.93c0,0-14.46-11.98-14.77-19C127.85,276.77,130.33,272.38,132.72,272.61z"/>
	<path class="st4" d="M131.7,251.2c0,0-2.53-4.39-3.62,0c-1.01,4.08,2.5,5.45,2.5,5.45L131.7,251.2z"/>
	<path class="st6" d="M134.55,247.79c0,0,2.02-3.41,1.57-8.73c-0.45-5.33-5.97-9.86-14.64-7.8c-8.66,2.06-12.02,7.72-13.74,13.75
		c-1.72,6.03-1.05,11.83,3.83,13.32c4.88,1.5,12.8,2.31,15.57-1.85C130.79,251,134.55,247.79,134.55,247.79z"/>
	<path class="st2" d="M133.66,241.15c0,0-0.21,3.42-0.4,5.1c-0.26,2.39-1.03,3.81-1.03,3.81s-1.18-2.57-0.41-4.45
		C132.59,243.74,133.66,241.15,133.66,241.15z"/>
	<path class="st2" d="M128.75,245.14c0,0,0.8,3.26,1.05,4.91c0.24,1.66,0.24,2.51,0.24,2.51s-1.68-0.19-2.14-2.11
		C127.44,248.53,128.75,245.14,128.75,245.14z"/>
	<path class="st2" d="M120.22,255.29c0,0,2.26,0.11,3.8-0.62c1.54-0.73,4.38-0.65,4.38-0.65s-2.46,2.59-5.15,2.28
		C120.57,255.99,120.22,255.29,120.22,255.29z"/>
	<path class="st2" d="M135.23,246.24l-0.68,2.39c0,0-1.66,0.94-2.85,2.56c-1.18,1.62-3.29,3.48-3.29,3.48s2.53-5.06,4.38-6.64
		C134.64,246.45,135.23,246.24,135.23,246.24z"/>
	<path class="st2" d="M128.08,232.46c3.44,0.01,4.81,1.74,4.53,3.28c-0.28,1.54-2.1,2.14-4.2,3.32c-2.1,1.19-5.01,5.28-5.95,9.8
		c-0.94,4.52-4.73,7.77-8.01,7.79c-3.28,0.01-5.18-0.54-5.85-3.7c-0.67-3.16-0.39-5.41,1.51-4.29c4.02,2.35,8.32,2.81,9.4-2.41
		c1.08-5.22,4.04-6.55,6.35-8.87C128.17,235.05,124.14,232.44,128.08,232.46z"/>
	<path class="st2" d="M131.56,269.38c0,0-3.09-4.71-8.34-5.9c-5.25-1.19-6.8-1.81-6.8-1.81L115,264.2
		C115,264.2,122.91,267.24,131.56,269.38z"/>
	<path class="st2" d="M131.56,272.03c2.16-0.86,3.98,0.97,6,3.51c2.03,2.54,8.2,15.11,9.13,15.55c0.93,0.43,1.24-0.9,2.93,0
		c1.7,0.9,2.37,0.57,3.6,0.18c1.24-0.39,5.1-0.78,5.1-0.78s4.89,1.72,2.52,7.04c-2.27,0.86-6.81,3.01-11.79,4.67
		c-3.14,1.05-5.64,1.59-8.41,0c-2.78-1.59-12.5-11.24-13.57-16.04C126,281.36,126.31,274.12,131.56,272.03z"/>
	
		<ellipse transform="matrix(0.9235 -0.3836 0.3836 0.9235 -33.9584 49.0632)" class="st13" cx="106.02" cy="109.66" rx="4.38" ry="7.81"/>
	<linearGradient id="SVGID_17_" gradientUnits="userSpaceOnUse" x1="235.2554" y1="232.5751" x2="378.2491" y2="310.3605">
		<stop  offset="0" style="stop-color:#FFBDFF;stop-opacity:0"/>
		<stop  offset="0.2496" style="stop-color:#FEB9F6;stop-opacity:0.1874"/>
		<stop  offset="0.6497" style="stop-color:#FCAFDF;stop-opacity:0.4878"/>
		<stop  offset="0.9989" style="stop-color:#F9A4C5;stop-opacity:0.75"/>
	</linearGradient>
	<path class="st34" d="M360.34,202.16l-94.51,55.5L360.34,202.16c2.72-1.36,6.22-1.13,9.96,1.09c8.77,5.18,15.88,19.07,15.88,31.02
		c0,6.44-2.07,11-3.87,13.93L237.1,336.38l-23.66-47.99C213.44,288.39,360.06,202.31,360.34,202.16z"/>
	<path class="st35" d="M381.24,177.7c0.89-0.44,2.03-0.36,3.26,0.35c2.87,1.68,5.19,6.18,5.19,10.05c0,2.09-0.68,3.56-1.75,4.22
		l-168.68,98.23l-6.69-14.62L381.24,177.7z"/>
	<path class="st3" d="M210.73,280.21c0,3.87,2.33,8.37,5.19,10.05c2.87,1.68,5.19-0.1,5.19-3.98c0-3.87-2.33-8.37-5.19-10.05
		C213.05,274.56,210.73,276.34,210.73,280.21z"/>
	<path class="st7" d="M215.64,279.18l-26.14-15.28l-1.74,0.98l1.74,6.26l26.14,15.28c1.48,0.86,2.68-0.06,2.68-2.05
		C218.32,282.38,217.11,280.05,215.64,279.18z"/>
	<path class="st3" d="M214.26,280.76l-26.14-15.28v7.24l26.14,15.28c1.48,0.86,2.68-0.06,2.68-2.05
		C216.95,283.96,215.74,281.62,214.26,280.76z"/>
	<linearGradient id="SVGID_18_" gradientUnits="userSpaceOnUse" x1="222.231" y1="115.7166" x2="324.0559" y2="231.5368">
		<stop  offset="0" style="stop-color:#FFBDFF;stop-opacity:0"/>
		<stop  offset="0.299" style="stop-color:#FFBCFC;stop-opacity:0.1495"/>
		<stop  offset="0.5405" style="stop-color:#FEB7F2;stop-opacity:0.2703"/>
		<stop  offset="0.7618" style="stop-color:#FCB0E1;stop-opacity:0.3809"/>
		<stop  offset="0.97" style="stop-color:#F9A6C9;stop-opacity:0.485"/>
		<stop  offset="1" style="stop-color:#F9A4C5;stop-opacity:0.5"/>
	</linearGradient>
	<polygon class="st36" points="330.82,88.89 345.84,125.35 370.25,188.58 227.26,271.79 188.35,172.27 	"/>
	<linearGradient id="SVGID_19_" gradientUnits="userSpaceOnUse" x1="270.8866" y1="312.047" x2="458.2296" y2="312.047">
		<stop  offset="0.85" style="stop-color:#F5FFFF"/>
		<stop  offset="1" style="stop-color:#DCF2FF"/>
	</linearGradient>
	<path class="st37" d="M427.61,240.55l-100.83,61.88L427.61,240.55c2.9-1.52,6.7-1.37,10.81,0.91c9.62,5.32,19.5,17.77,19.8,30.58
		c0.16,6.9-2.01,9.58-5.5,11.85L294.15,384.54l-23.27-47.85C270.89,336.7,427.31,240.71,427.61,240.55z"/>
	<linearGradient id="SVGID_20_" gradientUnits="userSpaceOnUse" x1="264.1189" y1="361.3323" x2="298.492" y2="361.3323">
		<stop  offset="0" style="stop-color:#C4DCE8"/>
		<stop  offset="1" style="stop-color:#DCF2FF"/>
	</linearGradient>
	<path class="st38" d="M264.12,351.29c0,12.81,7.69,27.7,17.19,33.25c9.49,5.55,17.19-0.34,17.19-13.16
		c0-12.81-7.69-27.7-17.19-33.25C271.81,332.58,264.12,338.47,264.12,351.29z"/>
	<path class="st14" d="M267.35,354.52c0,9.42,5.65,20.35,12.63,24.43s12.63-0.25,12.63-9.67c0-9.42-5.65-20.35-12.63-24.43
		C273.01,340.78,267.35,345.11,267.35,354.52z"/>
	<path class="st7" d="M270.74,356.88c0,6.2,3.72,13.4,8.32,16.09c4.59,2.68,8.32-0.17,8.32-6.37s-3.72-13.4-8.32-16.09
		C274.47,347.83,270.74,350.68,270.74,356.88z"/>
	<g>
		<defs>
			<path id="SVGID_21_" d="M294.57,360.69L256,338.01c-0.66-0.39-1.49-0.39-2.15,0l-7.56,4.48l0,0.02l0.25,60.9
				c0,0.75,0.41,1.45,1.06,1.82l39.36,22.78v0.19l0.16-0.09l0.02,0.01l0-0.02l7.23-4.26c0.65-0.38,1.04-1.07,1.04-1.82V410.5
				c0-0.73,0.37-1.4,0.99-1.79l162.51-102.43c0.6-0.38,1.34-0.43,1.98-0.15l11.13,4.91v0l7.41-4.36c0.65-0.38,1.04-1.07,1.04-1.82
				v-60.84l0,0l-37.26-16.58c-0.63-0.28-1.35-0.24-1.94,0.12l-6.48,3.87c-0.64,0.38-1.03,1.07-1.03,1.82v59.55
				c0,0.84,0.49,1.6,1.26,1.94l13.68,6.04c1.55,0.68,1.71,2.82,0.27,3.73l-150.31,94.75c-1.41,0.89-3.24-0.12-3.24-1.79l0-35.27
				C295.41,361.55,295.09,360.99,294.57,360.69z"/>
		</defs>
		<clipPath id="SVGID_22_">
			<use xlink:href="#SVGID_21_"  style="overflow:visible;"/>
		</clipPath>
		<g class="st39">
			<linearGradient id="SVGID_23_" gradientUnits="userSpaceOnUse" x1="452.8595" y1="232.0122" x2="452.8595" y2="311.0226">
				<stop  offset="0" style="stop-color:#0C89C9"/>
				<stop  offset="0.28" style="stop-color:#1089CA"/>
				<stop  offset="0.999" style="stop-color:#159DD8"/>
			</linearGradient>
			<polygon class="st40" points="471.99,311.02 433.73,294.14 433.73,232.01 471.99,248.9 			"/>
			<polygon class="st10" points="480.45,244 442.18,226.97 433.73,232.01 471.99,248.9 			"/>
			
				<linearGradient id="SVGID_24_" gradientUnits="userSpaceOnUse" x1="266.4727" y1="342.4262" x2="266.4727" y2="428.2083" gradientTransform="matrix(1 -4.131211e-03 4.131211e-03 1 -1.3742 1.0849)">
				<stop  offset="0" style="stop-color:#0C89C9"/>
				<stop  offset="0.28" style="stop-color:#1089CA"/>
				<stop  offset="0.999" style="stop-color:#159DD8"/>
			</linearGradient>
			<polygon class="st41" points="287.11,428.1 246.52,404.62 246.27,342.49 286.85,365.98 			"/>
			<polygon class="st10" points="295.39,361.16 254.9,337.36 246.44,342.41 286.93,366.06 			"/>
			<polygon class="st11" points="471.99,248.9 471.99,289.93 295.39,401.25 295.39,361.16 286.93,366.06 286.93,428.19 
				295.39,423.21 295.39,409.31 471.99,298 471.99,311.02 480.44,306.05 480.44,244 			"/>
		</g>
	</g>
	<linearGradient id="SVGID_25_" gradientUnits="userSpaceOnUse" x1="304.011" y1="301.7271" x2="458.2296" y2="301.7271">
		<stop  offset="0.85" style="stop-color:#F5FFFF"/>
		<stop  offset="1" style="stop-color:#DCF2FF"/>
	</linearGradient>
	<path class="st42" d="M427.61,240.55l-100.83,61.88L427.61,240.55c2.9-1.52,6.7-1.37,10.81,0.91c9.62,5.32,19.5,17.77,19.8,30.58
		c0.16,6.9-2.01,9.58-5.5,11.85L326.66,363.9l-22.65-47.56C304.01,316.34,427.31,240.71,427.61,240.55z"/>
</g>
</svg>
